<svg width="614" height="818" viewBox="0 0 614 818" fill="none" xmlns="http://www.w3.org/2000/svg">
<g clip-path="url(#clip0_16_291)">
<path d="M616.297 414.146C606.577 398.126 582.607 395.896 579.177 395.616C550.167 393.286 532.957 413.586 526.127 407.566C519.387 401.616 535.417 381.166 543.657 346.356C554.597 300.096 542.887 259.336 539.327 259.356C536.786 259.346 539.137 280.076 525.947 304.006C524.597 306.466 507.877 336.166 492.717 333.506C483.367 331.856 479.237 318.486 476.087 312.116C456.097 271.566 402.677 240.326 358.267 240.156C340.177 240.096 321.807 245.166 305.117 253.576C279.067 250.756 255.547 246.556 238.427 227.076C265.937 203.046 303.197 186.046 339.577 186.196C393.507 186.396 458.437 224.376 482.727 273.626C487.367 283.026 494.007 299.926 502.917 299.626C512.797 299.296 517.987 278.056 542.687 233.366C555.247 210.636 557.717 209.246 559.567 209.526C569.527 211.076 576.957 264.006 564.837 315.256C554.827 357.556 535.357 382.396 543.537 389.626C551.837 396.966 572.747 372.286 607.997 375.106C612.157 375.436 641.287 378.156 653.087 397.626C666.387 419.576 650.187 450.516 639.217 471.496C638.797 472.296 638.377 473.086 637.947 473.876C629.337 470.856 619.707 467.986 609.547 465.846C617.637 449.526 625.447 429.276 616.287 414.166L616.297 414.146Z" fill="#80FF72"/>
<path d="M326.637 724.426C325.327 731.166 326.217 736.746 329.917 740.996C342.587 755.606 378.987 746.686 397.237 738.126C407.797 733.176 416.457 726.406 423.607 718.836C433.617 718.356 440.547 718.616 446.007 720.476C415.597 774.996 389.277 794.306 365.827 803.906C347.667 811.356 300.847 825.436 285.127 807.346C272.167 792.416 286.687 762.836 311.757 724.636C316.357 724.656 321.317 724.576 326.627 724.436L326.637 724.426Z" fill="#FF499E"/>
<path d="M552.987 120.346C621.377 141.826 676.797 92.8056 699.827 118.966C725.317 147.926 662.057 213.186 688.487 257.526C719.477 309.536 844.697 283.746 847.967 305.056C850.347 320.516 782.677 323.166 759.387 369.666C751.167 386.086 748.627 407.636 788.837 539.066C809.337 606.056 820.027 633.286 812.387 638.016C796.317 647.966 741.697 532.436 629.117 507.216C625.787 506.466 622.257 505.686 618.577 504.916C614.087 503.956 609.357 503.026 604.467 502.236C600.797 501.646 597.037 501.126 593.207 500.746C591.927 500.616 590.647 500.506 589.357 500.406C569.887 498.866 549.087 500.976 530.847 512.966C506.937 528.695 500.667 552.766 493.317 586.046C492.057 587.836 490.927 589.806 489.937 591.916C486.287 599.746 485.197 608.626 486.127 617.566C486.127 617.566 486.127 617.566 486.127 617.586C480.797 639.096 473.467 663.546 460.907 691.036C458.847 688.255 456.257 685.966 452.937 684.256C450.987 683.246 449.117 682.626 447.187 682.326C449.857 676.476 451.977 671.056 453.757 666.556C473.057 617.586 456.487 602.306 474.447 551.876C483.337 526.936 494.907 494.396 524.327 476.026C550.567 459.626 582.057 460.036 609.547 465.826C619.707 467.956 629.337 470.836 637.947 473.856C654.497 479.696 667.287 486.096 672.967 488.956C736.057 520.536 770.047 573.256 775.437 568.876C778.767 566.166 764.297 547.046 750.137 517.176C734.027 483.136 707.497 427.246 725.557 375.846C729.197 365.516 738.217 339.836 760.717 330.006C778.427 322.256 812.367 317.406 813.537 312.306C814.617 307.546 802.027 306.266 781.737 308.616C720.187 315.726 683.437 301.246 666.387 282.296C642.647 255.886 698.047 191.956 675.847 166.726C656.637 144.876 610.417 185.776 553.347 167.866C486.247 146.786 457.917 61.2656 445.317 67.8156C439.697 70.7256 446.697 87.0155 443.807 124.216C441.647 152.266 441.377 166.346 434.177 170.826C416.677 181.666 389.177 136.816 324.447 123.506C292.267 116.896 271.917 122.396 261.027 126.606C251.607 130.226 231.307 138.066 222.697 156.886C212.647 178.796 222.817 206.136 234.387 222.026C235.697 223.816 237.027 225.486 238.407 227.066C255.517 246.546 279.047 250.746 305.097 253.566C335.717 256.886 369.807 258.286 400.967 280.406C449.277 314.656 459.797 376.876 463.037 395.966C485.687 529.816 359.127 650.476 331.347 710.686C327.487 711.196 323.817 711.536 320.397 711.696C380.787 622.846 484.017 494.816 444.697 393.796C429.727 355.326 392.097 315.656 352.837 292.206C328.287 277.546 305.987 270.946 285.327 265.606C276.787 263.396 268.537 261.406 260.507 259.156C257.837 258.406 255.187 257.626 252.557 256.796C248.617 255.556 244.737 254.206 240.907 252.686C238.347 251.676 235.817 250.586 233.307 249.416C229.537 247.646 225.817 245.676 222.127 243.436C213.027 237.916 204.177 230.766 195.477 221.096C187.307 211.956 160.197 181.766 163.237 140.916C164.917 118.356 176.397 84.6256 202.607 70.9056C268.237 36.5356 375.987 153.816 410.137 123.896C417.897 117.086 419.167 100.746 421.697 68.0356C425.167 23.4456 416.757 3.90555 423.497 0.42555C438.597 -7.40445 472.567 95.0956 552.987 120.346Z" fill="#FF499E"/>
<path d="M240.937 252.655C244.767 254.175 248.657 255.525 252.587 256.765C255.207 257.595 257.857 258.375 260.537 259.125C268.557 261.385 276.817 263.375 285.357 265.575C258.357 285.085 239.367 312.885 239.687 338.245C240.177 376.245 283.827 387.355 292.437 449.985C294.617 465.765 297.157 486.245 286.257 505.465C274.087 526.895 256.677 526.456 249.647 546.026C242.997 564.516 249.327 590.575 265.057 603.345C291.857 625.085 334.327 598.735 343.567 612.865C355.877 631.655 286.327 687.025 298.217 705.735C301.357 710.675 309.617 712.165 320.437 711.675C323.857 711.515 327.527 711.175 331.387 710.665C347.527 708.535 366.777 703.735 383.177 699.625C423.347 689.585 436.147 680.586 447.197 682.326C449.127 682.625 450.997 683.255 452.947 684.255C456.277 685.965 458.867 688.255 460.917 691.035C476.207 711.735 461.027 758.695 488.797 780.635C512.937 799.706 569.127 780.916 588.277 773.635C588.277 773.635 661.117 745.975 693.587 676.595C701.677 659.305 702.017 650.336 698.187 644.776C694.597 639.566 684.897 634.425 639.197 642.995C565.827 656.765 549.127 682.126 523.047 671.586C504.007 663.885 488.497 640.486 486.127 617.576V617.555C485.197 608.605 486.277 599.735 489.937 591.905C490.927 589.795 492.057 587.825 493.317 586.035C500.997 574.865 512.827 569.155 519.327 566.576C519.327 566.576 557.697 545.535 589.357 500.395C590.647 500.495 591.927 500.605 593.207 500.735C597.037 501.125 600.797 501.635 604.467 502.225C609.357 503.016 614.087 503.945 618.577 504.905C580.467 558.035 535.277 582.805 535.277 582.805C519.537 591.445 501.257 598.996 499.577 613.586C498.147 625.926 508.917 640.565 522.267 646.956C549.827 660.135 572.087 630.295 631.547 620.535C652.737 617.075 696.817 609.845 711.077 630.095C727.877 653.985 694.107 703.085 682.427 720.065C647.257 771.175 600.557 792.076 590.017 796.565C582.137 799.915 495.567 835.905 468.107 804.105C448.897 781.835 475.367 745.776 454.617 725.776C452.047 723.306 449.287 721.586 446.007 720.456C440.547 718.596 433.617 718.335 423.607 718.815C412.677 719.345 398.077 720.755 377.697 721.905C358.267 723.015 341.137 723.995 326.627 724.405C321.317 724.555 316.357 724.635 311.757 724.605C288.747 724.485 274.757 721.955 271.497 714.365C263.157 695.015 329.957 655.436 321.707 639.026C314.287 624.266 259.037 654.025 226.317 627.465C207.207 611.955 199.507 580.306 207.597 557.826C216.137 534.056 237.287 534.585 252.067 508.545C265.327 485.195 262.237 460.305 259.597 441.135C249.117 365.055 196.087 351.555 195.497 305.365C195.227 284.735 205.487 262.775 222.167 243.375C225.847 245.615 229.577 247.585 233.347 249.355C235.857 250.535 238.397 251.615 240.947 252.625L240.937 252.655Z" fill="#80FF72"/>
</g>
<defs>
<clipPath id="clip0_16_291">
<rect width="685.04" height="817.16" fill="white"/>
</clipPath>
</defs>
</svg>
