<svg width="1374" height="1201" viewBox="0 0 1374 1201" fill="none" xmlns="http://www.w3.org/2000/svg">
<path d="M747.19 922.84C745.14 922.02 743.13 921.14 741.14 920.2C717.4 909.12 697.03 890.93 683.98 867.38C671.74 845.28 666.29 820.18 667.97 795.46C668.41 788.98 669.35 782.53 670.78 776.16C672.87 766.79 676.04 757.63 680.31 748.83C697.67 713.1 731.4 687.32 770.04 679.36C773.21 678.71 776.42 678.17 779.65 677.76C782.82 677.36 785.99 677.08 789.16 676.93C827.75 675.05 865.7 691.36 891.42 720.34C908.07 739.1 918.18 762.07 921.61 786.08C921.96 788.56 922.24 791.07 922.45 793.58C917.28 794.16 912.21 795.68 907.56 798.14C906.31 798.79 905.11 799.51 903.94 800.28C903.82 797.48 903.59 794.69 903.25 791.92C900.03 765.39 887.22 740.16 866.38 722.22C844.44 703.34 815.1 693.84 786.38 696.16C780.43 696.65 774.52 697.63 768.69 699.14C767.75 699.39 766.82 699.64 765.89 699.91C731.59 709.81 704.15 735.78 692.35 769.57C680.54 803.37 687.2 841.69 708.54 870.19C720.76 886.5 737.19 898.56 755.58 905.72C758.35 906.8 761.17 907.77 764.03 908.62C763.25 908.94 762.49 909.3 761.73 909.69C755.72 912.76 750.75 917.32 747.2 922.83L747.19 922.84Z" fill="#00FF00"/>
<path d="M763.46 983.88C761.41 983.15 759.42 982.27 757.51 981.23C753.16 978.89 749.18 975.8 745.84 972C736.44 961.35 732.58 946.62 735.92 932.75C736.99 928.27 738.78 924.05 741.15 920.2C744.75 914.34 749.71 909.36 755.58 905.73C758.16 904.14 760.91 902.8 763.81 901.76C777.36 896.92 792.63 899.34 804.21 907.76C806.19 909.2 808.01 910.79 809.68 912.52C813.71 916.67 816.8 921.57 818.87 926.88C821.61 933.86 822.56 941.56 821.56 949.18C821.33 950.94 819.28 952.01 817.67 951.66C815.85 951.25 814.98 949.51 815.2 947.77C815.95 942.02 815.3 936.24 813.46 930.91C811.05 923.95 806.63 917.74 800.69 913.25C799.22 912.12 797.66 911.12 796 910.22C786.23 904.97 774.24 904.33 764.03 908.63C763.25 908.95 762.49 909.31 761.73 909.7C755.72 912.77 750.75 917.33 747.2 922.84C744.14 927.58 742.14 933.02 741.45 938.78C739.98 950.92 745.03 963.21 754.23 971.14C756.07 972.72 758.04 974.1 760.1 975.26C762.01 976.33 763.99 977.21 766.05 977.92C765.01 979.82 764.15 981.82 763.47 983.88H763.46Z" fill="#00FF00"/>
<path d="M954.49 818.93C952.44 818.11 950.43 817.23 948.44 816.29C924.7 805.21 904.33 787.02 891.28 763.47C879.04 741.37 873.59 716.27 875.27 691.55C875.71 685.07 876.65 678.62 878.08 672.25C880.17 662.88 883.34 653.72 887.61 644.92C904.97 609.19 938.7 583.41 977.34 575.45C980.51 574.8 983.72 574.26 986.95 573.85C990.12 573.45 993.29 573.17 996.46 573.02C1035.05 571.14 1073 587.45 1098.72 616.43C1115.37 635.19 1125.48 658.16 1128.91 682.17C1129.26 684.65 1129.54 687.16 1129.75 689.67C1124.58 690.25 1119.51 691.77 1114.86 694.23C1113.61 694.88 1112.41 695.6 1111.24 696.37C1111.12 693.57 1110.89 690.78 1110.55 688.01C1107.33 661.48 1094.52 636.25 1073.68 618.31C1051.74 599.43 1022.4 589.93 993.68 592.25C987.73 592.74 981.82 593.72 975.99 595.23C975.05 595.48 974.12 595.73 973.19 596C938.89 605.9 911.45 631.87 899.65 665.66C887.84 699.46 894.5 737.78 915.84 766.28C928.06 782.59 944.49 794.65 962.88 801.81C965.65 802.89 968.47 803.86 971.33 804.71C970.55 805.03 969.79 805.39 969.03 805.78C963.02 808.85 958.05 813.41 954.5 818.92L954.49 818.93Z" fill="#00FF00"/>
<path d="M474.272 421.383C474.222 421.433 474.182 421.493 474.132 421.543C479.892 389.053 500.722 360.763 529.162 345.233C531.622 343.893 534.142 342.643 536.712 341.493C543.372 338.523 550.392 336.233 557.662 334.723C592.022 327.573 628.372 337.283 654.082 361.383C680.552 386.173 692.822 423.493 686.532 459.163C680.362 494.153 656.512 523.983 624.312 538.563C622.192 539.523 620.052 540.403 617.902 541.203C612.402 543.263 606.802 544.833 601.122 545.923C596.522 540.503 591.322 535.693 585.662 531.563C592.642 531.183 599.582 530.023 606.312 528.063C614.242 525.783 621.902 522.393 629.062 517.913C654.022 502.273 670.692 474.533 672.052 444.973C673.482 413.983 659.312 384.313 634.382 365.873C610.102 347.913 577.562 343.713 549.282 353.783C546.092 354.923 542.992 356.223 539.982 357.703C537.092 359.113 534.312 360.683 531.622 362.393C509.712 376.233 494.452 399.163 489.832 425.103C489.342 427.863 487.012 430.173 484.412 431.003H484.402C477.662 433.133 473.282 426.703 474.282 421.393L474.272 421.383Z" fill="#00FF00"/>
<path d="M171.772 485.873H171.762C169.552 484.803 166.682 484.773 164.502 485.983C164.242 486.123 164.002 486.283 163.782 486.463C137.422 506.243 102.092 511.203 71.6621 497.993C44.1021 486.043 23.2021 460.763 17.7121 431.063C12.0821 400.563 21.9821 369.233 44.2021 347.553C65.3521 326.883 96.4821 317.993 125.412 323.613C162.392 330.793 191.892 360.923 198.302 398.043C199.042 402.323 202.382 405.783 206.982 405.393C211.032 405.073 215.082 401.013 214.342 396.703C207.622 357.823 180.652 324.533 142.952 311.783C126.232 306.133 108.432 304.663 91.2821 307.283C87.7021 307.833 84.1321 308.543 80.6221 309.453C67.2721 312.873 54.5221 318.853 43.2721 327.323C14.3221 349.093 -2.17794 384.733 0.232058 420.923C2.57206 456.083 22.5021 487.993 52.5021 506.223C87.4621 527.463 132.542 526.033 166.572 504.123C168.702 502.763 170.782 501.323 172.812 499.783C172.742 499.793 172.672 499.793 172.602 499.803C172.662 499.763 172.722 499.713 172.782 499.673L171.782 485.883L171.772 485.873Z" fill="#00FF00"/>
<path d="M141.002 175.813C140.412 173.423 139.902 171.033 139.452 168.623C134.032 139.933 137.242 109.653 150.052 82.5129C162.092 57.0529 181.252 35.783 204.722 21.213C210.872 17.403 217.322 14.0429 224.012 11.1929C233.852 6.99294 244.212 3.89291 254.952 2.03291C298.592 -5.50709 343.872 8.2429 376.212 38.0329C378.862 40.4829 381.442 43.0329 383.912 45.6929C386.342 48.3029 388.652 50.9829 390.852 53.7529C417.662 87.4529 427.602 132.423 418.102 174.553C411.962 201.833 397.752 225.933 378.252 244.663C376.232 246.593 374.152 248.483 372.012 250.303C368.122 246.003 363.452 242.403 358.202 239.793C356.802 239.093 355.362 238.463 353.912 237.913C356.362 235.983 358.742 233.953 361.032 231.843C382.952 211.663 397.442 183.653 400.112 153.113C402.922 120.973 392.422 88.2329 371.642 63.7429C367.332 58.6729 362.592 53.9629 357.432 49.6729C356.592 48.9829 355.762 48.303 354.912 47.643C323.632 23.043 282.272 15.1029 244.002 26.4229C205.722 37.7329 175.382 68.7029 163.472 106.553C156.662 128.223 156.442 150.943 161.932 172.253C162.762 175.463 163.712 178.643 164.802 181.783C164.002 181.283 163.182 180.833 162.342 180.393C155.652 176.953 148.292 175.423 140.992 175.793L141.002 175.813Z" fill="#00FF00"/>
<path d="M166.562 504.113C164.762 498.293 164.032 492.133 164.502 485.993C164.672 483.743 165.002 481.493 165.492 479.253C169.052 463.283 180.732 449.943 196.032 444.203C211.042 438.563 228.102 440.993 241.162 450.153C255.862 460.473 263.292 478.313 261.262 496.013C261.032 497.963 258.772 499.203 256.972 498.843C254.932 498.423 253.922 496.503 254.142 494.553C256.092 477.653 247.142 460.863 232.052 453.053C220.252 446.943 205.632 446.833 193.852 453.093C181.472 459.653 173.202 471.963 171.762 485.883C171.282 490.543 171.652 495.213 172.772 499.673C172.782 499.713 172.792 499.743 172.802 499.793C174.962 508.273 179.812 516.053 186.602 521.713C191.702 525.973 197.682 528.803 203.962 530.173C206.672 530.763 209.442 531.083 212.222 531.123C217.522 531.223 222.872 530.333 227.952 528.443C229.122 528.003 230.562 528.373 231.472 529.203H231.482C233.852 531.333 232.362 534.513 230.062 535.343C230.102 535.343 230.122 535.363 230.162 535.363C222.962 538.053 215.272 538.943 207.792 538.123C205.292 537.863 202.802 537.393 200.372 536.753C191.622 534.433 183.512 529.713 177.252 522.843C172.312 517.423 168.692 511.003 166.542 504.143L166.562 504.113Z" fill="#00FF00"/>
<path d="M96.332 230.263C95.662 227.943 95.162 225.563 94.862 223.153C94.142 217.703 94.362 212.083 95.622 206.583C99.142 191.143 109.962 178.073 124.692 172.053C129.442 170.113 134.432 168.983 139.462 168.623C147.112 168.073 154.842 169.323 161.942 172.273C165.062 173.563 168.062 175.193 170.892 177.143C184.092 186.253 191.832 201.653 191.752 217.613C191.732 220.343 191.482 223.023 191.002 225.653C189.872 231.993 187.452 237.983 183.992 243.323C179.452 250.343 173.112 256.213 165.562 260.263C163.822 261.193 161.522 260.043 160.792 258.353C159.972 256.433 160.982 254.513 162.702 253.593C168.402 250.533 173.192 246.183 176.822 241.043C181.552 234.333 184.302 226.293 184.492 217.993C184.552 215.933 184.452 213.853 184.182 211.783C182.582 199.523 175.352 188.253 164.812 181.813C164.012 181.313 163.192 180.863 162.352 180.423C155.662 176.983 148.302 175.453 141.002 175.823C134.722 176.133 128.492 177.863 122.832 180.993C110.892 187.563 103.052 200.133 101.862 213.623C101.622 216.313 101.662 218.993 101.952 221.613C102.222 224.043 102.722 226.413 103.412 228.723C101.012 229.023 98.642 229.543 96.332 230.263Z" fill="#00FF00"/>
<path d="M61.592 257.923C65.582 242.053 77.622 229.043 93.062 223.713C93.652 223.513 94.252 223.313 94.862 223.143C97.192 222.443 99.5621 221.933 101.952 221.593C114.592 219.833 127.672 223.173 138.022 230.873C152.442 241.593 159.392 259.623 156.882 277.253C156.592 279.203 154.302 280.373 152.522 279.963C150.492 279.493 149.522 277.543 149.802 275.593C152.212 258.773 143.722 241.743 128.842 233.523C121.122 229.263 112.102 227.603 103.412 228.703C101.012 229.003 98.642 229.523 96.332 230.243C94.382 230.853 92.492 231.623 90.652 232.523C78.112 238.743 69.5121 250.823 67.6921 264.693C65.9321 278.213 71.392 291.963 81.562 300.923C84.522 303.533 87.792 305.643 91.282 307.243C101.012 311.743 112.342 312.323 122.712 308.753C123.902 308.343 125.332 308.753 126.222 309.613H126.232C128.542 311.803 126.972 314.943 124.652 315.713C124.682 315.723 124.712 315.733 124.742 315.743C109.902 320.833 93.2421 318.323 80.6321 309.423C77.5521 307.253 74.7121 304.713 72.2021 301.793C61.8421 289.793 57.7321 273.343 61.6021 257.913L61.592 257.923Z" fill="#00FF00"/>
<path d="M310.932 372.123C310.902 348.663 322.182 326.183 341.452 312.623C353.262 304.303 367.302 299.883 381.472 299.583C384.412 299.503 387.372 299.613 390.312 299.913C396.962 300.563 403.542 302.133 409.852 304.643C421.352 309.223 431.272 316.743 438.882 326.163C440.722 328.443 442.442 330.853 444.002 333.353C448.362 340.303 451.562 348.003 453.392 356.133C456.382 369.463 455.302 383.063 450.842 395.493C449.842 398.293 448.662 401.043 447.332 403.693C443.052 412.233 437.092 419.983 429.732 426.423C427.532 428.343 423.812 427.443 422.202 425.243C420.392 422.753 421.192 419.633 423.382 417.723C430.462 411.523 435.872 403.843 439.382 395.423C440.772 392.153 441.862 388.783 442.642 385.343C445.312 373.853 444.742 361.623 440.512 350.233C439.832 348.413 439.072 346.633 438.232 344.893C436.702 341.753 434.912 338.743 432.882 335.913C424.622 324.403 412.462 315.743 398.602 312.203C394.332 311.123 390.012 310.493 385.702 310.323C382.282 310.173 378.852 310.333 375.482 310.753C363.102 312.313 351.282 317.573 341.722 326.133C326.672 339.603 319.512 360.323 322.272 380.213C325.322 402.173 340.432 420.603 360.892 428.773C362.632 429.463 363.832 431.303 364.012 433.133C364.492 437.833 359.692 439.823 356.352 438.453C356.372 438.493 356.412 438.523 356.432 438.563C329.582 427.843 310.962 401.163 310.932 372.133V372.123Z" fill="#00FF00"/>
<path d="M432.872 335.913C434.532 332.463 436.552 329.203 438.862 326.163C444.662 318.543 452.382 312.393 461.412 308.533C478.872 301.073 499.332 303.063 515.102 313.583C525.232 320.343 532.692 330.253 536.702 341.483C538.552 346.663 539.662 352.133 539.962 357.693C537.072 359.103 534.292 360.673 531.602 362.383C531.722 359.443 531.592 356.483 531.152 353.523C530.742 350.693 530.062 347.913 529.152 345.223C525.152 333.373 516.562 323.153 505.252 317.543C490.692 310.333 473.502 310.863 459.402 318.933C453.162 322.503 447.922 327.493 443.972 333.343C441.552 336.913 439.602 340.803 438.202 344.893C436.672 341.753 434.882 338.743 432.852 335.913H432.872Z" fill="#00FF00"/>
<path d="M256.572 603.743C256.632 601.183 256.772 598.633 257.012 596.093C257.932 585.903 260.282 575.793 264.072 566.123C268.272 555.403 274.142 545.663 281.322 537.113C282.972 535.143 284.682 533.243 286.472 531.423C303.732 513.603 327.032 501.953 352.262 498.803C356.602 498.263 360.452 502.493 360.602 506.553C360.772 511.163 357.162 514.353 352.852 514.893C328.962 517.873 307.482 530.403 292.762 548.623C290.392 551.543 288.202 554.623 286.212 557.833C281.182 565.883 277.372 574.763 275.082 584.223C275.022 584.453 274.972 584.693 274.912 584.923C274.042 588.623 273.422 592.363 273.032 596.123C270.382 621.313 278.232 647.403 295.192 666.473C315.812 689.663 346.652 701.023 377.382 696.823C401.832 693.483 423.832 679.713 438.272 660.073C441.502 655.683 444.352 651.003 446.772 646.073C447.172 645.273 447.552 644.463 447.922 643.643C458.952 619.303 458.312 591.463 447.432 567.523C445.832 563.993 444.002 560.553 441.952 557.223C441.192 555.963 440.392 554.733 439.562 553.513C437.992 551.203 438.052 547.913 439.342 545.503C442.682 539.263 450.302 540.813 453.302 545.313C453.302 545.243 453.302 545.173 453.302 545.103C476.392 579.063 478.212 624.663 457.562 660.033C456.472 661.913 455.302 663.763 454.082 665.583C452.162 668.433 450.132 671.163 447.962 673.793C428.042 698.113 398.222 713.173 366.432 713.793C330.172 714.503 295.342 696.343 274.952 666.403C262.282 647.813 256.142 625.763 256.602 603.733L256.572 603.743Z" fill="#00FF00"/>
<path d="M281.272 271.383C285.082 253.403 297.392 238.033 314.362 230.793C329.332 224.403 346.502 224.943 361.042 231.853C363.462 233.013 365.812 234.343 368.062 235.843C371.852 238.373 375.272 241.343 378.262 244.673C387.522 254.903 392.852 268.413 392.992 282.393C393.052 288.443 392.112 294.343 390.292 299.913C389.122 303.533 387.572 307.023 385.682 310.323C382.262 310.173 378.832 310.333 375.462 310.753C377.942 307.313 379.952 303.553 381.452 299.583C384.282 292.113 385.282 283.913 384.102 275.783C382.712 266.303 378.422 257.363 372.022 250.313C368.132 246.013 363.462 242.413 358.212 239.803C356.812 239.103 355.372 238.473 353.922 237.923C340.362 232.763 325.092 233.903 312.372 241.183C298.642 249.043 289.772 263.753 288.642 279.423C287.392 296.743 295.962 313.353 310.302 322.943C311.512 323.753 312.132 325.363 311.982 326.783H311.972C311.582 330.463 307.572 331.203 305.242 329.613C305.252 329.643 305.262 329.673 305.282 329.713C286.462 317.113 276.552 293.633 281.272 271.373V271.383Z" fill="#00FF00"/>
<path d="M438.262 660.073C441.492 655.683 444.342 651.003 446.762 646.073C447.162 645.273 447.542 644.463 447.912 643.643C450.522 649.403 453.732 654.913 457.542 660.043C460.392 663.933 463.582 667.603 467.102 671.033C488.202 691.593 519.112 701.233 548.132 695.563C578.592 689.603 604.062 668.843 616.082 640.253C627.792 612.403 624.182 579.803 607.702 554.693C605.682 551.613 603.482 548.693 601.122 545.933C596.522 540.513 591.322 535.703 585.662 531.573C568.542 519.053 547.232 512.653 525.572 513.743C525.162 513.773 524.752 513.793 524.342 513.813C522.152 513.953 519.962 512.933 518.442 511.353H518.432C518.012 510.923 517.642 510.453 517.332 509.943C513.672 503.903 518.882 498.113 524.282 497.823C524.212 497.793 524.152 497.753 524.102 497.733C554.632 495.803 584.712 507.303 606.312 528.083C610.522 532.123 614.402 536.503 617.902 541.223C621.852 546.543 625.312 552.263 628.222 558.363C643.292 590.053 642.462 627.663 625.132 658.343C607.302 689.923 573.942 710.673 537.802 713.003C503.422 715.213 469.822 700.133 447.952 673.823C447.272 673.013 446.602 672.173 445.932 671.323C443.112 667.723 440.562 663.963 438.272 660.083L438.262 660.073Z" fill="#00FF00"/>
<path d="M1113.28 841.199C1113.28 841.269 1113.31 841.329 1113.32 841.379C1092.67 820.169 1082.98 790.179 1086.56 761.329C1086.88 758.829 1087.28 756.349 1087.79 753.869C1089.12 747.459 1091.12 741.149 1093.83 735.059C1106.62 706.279 1132.73 684.899 1163.74 678.789C1195.65 672.489 1229.26 683.099 1251.95 706.359C1274.2 729.179 1283.44 762.169 1277.2 793.269C1276.79 795.309 1276.31 797.329 1275.77 799.329C1274.39 804.409 1272.6 809.319 1270.42 814.019C1264.06 814.529 1257.84 815.799 1251.86 817.759C1255.24 812.479 1258.03 806.819 1260.12 800.889C1262.61 793.919 1264.16 786.559 1264.64 779.009C1266.32 752.639 1254.85 725.969 1234.03 709.499C1212.2 692.229 1183.18 687.009 1156.69 695.509C1130.89 703.789 1110.79 725.289 1103.31 751.159C1102.46 754.079 1101.79 757.019 1101.29 759.979C1100.81 762.819 1100.49 765.679 1100.32 768.529C1098.92 791.729 1107.63 814.859 1124.11 831.809C1125.87 833.609 1126.33 836.519 1125.56 838.849C1123.58 844.879 1116.61 844.709 1113.26 841.189L1113.28 841.199Z" fill="#00FF00"/>
<path d="M1268.26 992.429C1266.76 987.779 1264.84 983.249 1262.52 978.909C1262.14 978.199 1261.75 977.499 1261.35 976.799C1266.91 977.909 1272.61 978.459 1278.34 978.379C1282.67 978.339 1287.01 977.939 1291.35 977.169C1317.38 972.569 1340.59 955.109 1351.65 930.999C1363.27 905.689 1361.48 876.269 1346.95 852.549C1332.8 829.429 1307.16 814.989 1280.24 813.849C1276.94 813.709 1273.66 813.779 1270.42 814.049C1264.06 814.559 1257.84 815.829 1251.86 817.789C1233.78 823.709 1217.95 835.869 1207.4 852.219C1207.2 852.529 1207.01 852.839 1206.81 853.149C1205.77 854.819 1203.87 855.879 1201.93 856.159C1201.4 856.249 1200.86 856.269 1200.32 856.229C1194.01 855.729 1192.53 848.909 1195.14 844.829C1195.09 844.859 1195.03 844.889 1194.98 844.909C1209.56 821.659 1233.69 805.769 1260.14 800.919C1265.28 799.969 1270.51 799.439 1275.78 799.359C1281.72 799.269 1287.71 799.739 1293.67 800.819C1324.65 806.439 1351.6 826.739 1364.87 855.429C1378.53 884.949 1376.18 920.119 1358.94 947.659C1342.55 973.859 1313.97 990.429 1283.34 992.579C1282.39 992.649 1281.43 992.699 1280.47 992.739C1276.37 992.909 1272.29 992.799 1268.27 992.439L1268.26 992.429Z" fill="#00FF00"/>
<path d="M864.661 1186.21C837.041 1169.01 819.721 1138.33 819.021 1105.84C818.751 1093.2 821.071 1080.8 825.571 1069.28C826.751 1066.25 828.091 1063.28 829.571 1060.38C836.641 1046.52 847.031 1034.32 859.911 1025.1C888.941 1004.32 927.311 1002.11 959.151 1017.59C962.681 1019.31 963.511 1024.38 961.631 1027.5C959.501 1031.05 955.231 1031.68 951.731 1029.98C921.331 1015.21 883.941 1020.92 859.341 1044.09C840.101 1062.22 830.281 1089.55 834.251 1115.78C838.411 1143.31 856.051 1166.93 881.211 1178.8C905.721 1190.35 935.081 1188.37 958.211 1174.56C983.771 1159.31 998.661 1130.98 998.061 1101.43C998.051 1101.17 998.061 1100.91 998.091 1100.65C998.351 1098.43 999.871 1096.35 1001.8 1095.3C1001.8 1095.3 1001.8 1095.3 1001.81 1095.3C1007.28 1092.3 1012.2 1097 1012.38 1101.79C1012.38 1101.86 1012.38 1101.93 1012.38 1101.99C1012.41 1101.94 1012.45 1101.89 1012.47 1101.83C1012.52 1104.11 1012.47 1106.38 1012.36 1108.65C1010.49 1144.9 987.921 1178.49 954.141 1192.83C925.161 1205.13 891.481 1202.93 864.651 1186.22L864.661 1186.21Z" fill="#00FF00"/>
<path d="M1059.03 1108.19C1057.03 1105.98 1055.3 1103.59 1053.84 1101.08C1052.71 1099.14 1051.74 1097.12 1050.94 1095.03C1052.79 1093.37 1054.47 1091.52 1055.96 1089.51C1056.65 1091.89 1057.58 1094.19 1058.73 1096.39C1060.91 1100.56 1063.89 1104.34 1067.58 1107.46C1076.69 1115.15 1089.45 1118.15 1101 1115.01C1113.04 1111.74 1122.68 1102.72 1126.74 1090.94C1126.77 1090.87 1126.8 1090.79 1126.82 1090.72C1128.87 1084.67 1129.19 1078.22 1127.97 1072.05C1130.21 1074.62 1132.61 1077.03 1135.14 1079.28C1135.12 1084.71 1134.13 1090.14 1132.08 1095.27C1131.75 1096.11 1131.38 1096.94 1131 1097.76C1124.71 1111.02 1111.85 1120.37 1097.33 1122.36C1083.08 1124.31 1068.63 1118.81 1059.03 1108.2V1108.19Z" fill="#00FF00"/>
<path d="M1132.08 1095.27C1130.25 1093.89 1128.46 1092.45 1126.73 1090.94C1119.79 1084.93 1113.66 1077.93 1108.6 1070.1C1102.99 1061.42 1098.98 1052.05 1096.51 1042.34C1095.94 1040.11 1095.45 1037.87 1095.06 1035.61C1091.13 1013.7 1094.84 990.629 1105.76 970.609C1107.64 967.159 1112.74 966.579 1115.77 968.599C1119.22 970.889 1119.65 975.189 1117.78 978.609C1107.44 997.569 1105.32 1019.78 1110.88 1040.04C1111.77 1043.3 1112.86 1046.5 1114.16 1049.63C1117.39 1057.51 1121.87 1064.93 1127.55 1071.56C1127.69 1071.72 1127.83 1071.88 1127.97 1072.05C1130.21 1074.62 1132.61 1077.03 1135.14 1079.28C1152.09 1094.4 1175.21 1102.35 1197.99 1099.99C1225.68 1097.12 1250.11 1080.6 1263.14 1056.02C1273.51 1036.46 1275 1013.22 1268.26 992.429C1266.76 987.779 1264.84 983.249 1262.52 978.909C1262.14 978.199 1261.75 977.499 1261.35 976.799C1249.4 956.019 1228.79 941.899 1205.65 937.289C1202.24 936.609 1198.78 936.139 1195.28 935.889C1193.97 935.779 1192.65 935.719 1191.33 935.679C1188.83 935.609 1186.46 933.849 1185.38 931.649C1182.6 925.939 1187.72 921.199 1192.56 921.379C1192.51 921.349 1192.46 921.309 1192.4 921.279C1229.23 922.249 1263.39 944.799 1278.34 978.369C1279.13 980.149 1279.87 981.969 1280.56 983.819C1281.63 986.709 1282.56 989.619 1283.33 992.569C1290.61 1019.82 1285.96 1049.42 1269.77 1072.9C1251.3 1099.68 1219.83 1115.54 1187.34 1114.71C1167.17 1114.2 1147.88 1107.13 1132.08 1095.26V1095.27Z" fill="#00FF00"/>
</svg>
