<svg width="748" height="1172" viewBox="0 0 748 1172" fill="none" xmlns="http://www.w3.org/2000/svg">
<path d="M534.078 878.825C534.028 878.875 533.988 878.935 533.938 878.985C539.698 846.495 560.528 818.205 588.968 802.675C591.428 801.335 593.948 800.085 596.518 798.935C603.178 795.965 610.198 793.675 617.468 792.165C651.828 785.015 688.178 794.725 713.888 818.825C740.358 843.615 752.628 880.935 746.338 916.605C740.168 951.595 716.318 981.425 684.118 996.005C681.998 996.965 679.858 997.845 677.708 998.645C672.208 1000.71 666.608 1002.28 660.928 1003.37C656.328 997.945 651.128 993.135 645.468 989.005C652.448 988.625 659.388 987.465 666.118 985.505C674.048 983.225 681.708 979.835 688.868 975.355C713.828 959.715 730.498 931.975 731.858 902.415C733.288 871.425 719.118 841.755 694.188 823.315C669.908 805.355 637.368 801.155 609.088 811.225C605.898 812.365 602.798 813.665 599.788 815.145C596.898 816.555 594.118 818.125 591.428 819.835C569.518 833.675 554.258 856.605 549.638 882.545C549.148 885.305 546.818 887.615 544.218 888.445H544.208C537.468 890.575 533.088 884.145 534.088 878.835L534.078 878.825Z" fill="#00FF00"/>
<path d="M231.578 943.315H231.568C229.358 942.245 226.488 942.215 224.308 943.425C224.048 943.565 223.808 943.725 223.588 943.905C197.228 963.685 161.898 968.645 131.468 955.435C103.908 943.485 83.0078 918.205 77.5178 888.505C71.8878 858.005 81.7878 826.675 104.008 804.995C125.158 784.325 156.288 775.435 185.218 781.055C222.198 788.235 251.698 818.365 258.108 855.485C258.848 859.765 262.188 863.225 266.788 862.835C270.838 862.515 274.888 858.455 274.148 854.145C267.428 815.265 240.458 781.975 202.758 769.225C186.038 763.575 168.238 762.105 151.088 764.725C147.508 765.275 143.938 765.985 140.428 766.895C127.078 770.315 114.328 776.295 103.078 784.765C74.1279 806.535 57.6278 842.175 60.0378 878.365C62.3778 913.525 82.3078 945.435 112.308 963.665C147.268 984.905 192.348 983.475 226.378 961.565C228.508 960.205 230.588 958.765 232.618 957.225C232.548 957.235 232.478 957.235 232.408 957.245C232.468 957.205 232.528 957.155 232.588 957.115L231.588 943.325L231.578 943.315Z" fill="#00FF00"/>
<path d="M200.808 633.255C200.218 630.865 199.708 628.475 199.258 626.065C193.838 597.375 197.048 567.095 209.858 539.955C221.898 514.495 241.058 493.225 264.528 478.655C270.678 474.845 277.128 471.485 283.818 468.635C293.658 464.435 304.018 461.335 314.758 459.475C358.398 451.935 403.678 465.685 436.018 495.475C438.668 497.925 441.248 500.475 443.718 503.135C446.148 505.745 448.458 508.425 450.658 511.195C477.468 544.895 487.408 589.865 477.908 631.995C471.768 659.275 457.558 683.375 438.058 702.105C436.038 704.035 433.958 705.925 431.818 707.745C427.928 703.445 423.258 699.845 418.008 697.235C416.608 696.535 415.168 695.905 413.718 695.355C416.168 693.425 418.548 691.395 420.838 689.285C442.758 669.105 457.248 641.095 459.918 610.555C462.728 578.415 452.228 545.675 431.448 521.185C427.138 516.115 422.398 511.405 417.238 507.115C416.398 506.425 415.568 505.745 414.718 505.085C383.438 480.485 342.078 472.545 303.808 483.865C265.528 495.175 235.188 526.145 223.278 563.995C216.468 585.665 216.248 608.385 221.738 629.695C222.568 632.905 223.518 636.085 224.608 639.225C223.808 638.725 222.988 638.275 222.148 637.835C215.458 634.395 208.098 632.865 200.798 633.235L200.808 633.255Z" fill="#00FF00"/>
<path d="M226.368 961.555C224.568 955.735 223.838 949.575 224.308 943.435C224.478 941.185 224.808 938.935 225.298 936.695C228.858 920.725 240.538 907.385 255.838 901.645C270.848 896.005 287.908 898.435 300.968 907.595C315.668 917.915 323.098 935.755 321.068 953.455C320.838 955.405 318.578 956.645 316.778 956.285C314.738 955.865 313.728 953.945 313.948 951.995C315.898 935.095 306.948 918.305 291.858 910.495C280.058 904.385 265.438 904.275 253.658 910.535C241.278 917.095 233.008 929.405 231.568 943.325C231.088 947.985 231.458 952.655 232.578 957.115C232.588 957.155 232.598 957.185 232.608 957.235C234.768 965.715 239.618 973.495 246.408 979.155C251.508 983.415 257.488 986.245 263.768 987.615C266.478 988.205 269.248 988.525 272.028 988.565C277.328 988.665 282.678 987.775 287.758 985.885C288.928 985.445 290.368 985.815 291.278 986.645H291.288C293.658 988.775 292.168 991.955 289.868 992.785C289.908 992.785 289.928 992.805 289.968 992.805C282.768 995.495 275.078 996.385 267.598 995.565C265.098 995.305 262.608 994.835 260.178 994.195C251.428 991.875 243.318 987.155 237.058 980.285C232.118 974.865 228.498 968.445 226.348 961.585L226.368 961.555Z" fill="#00FF00"/>
<path d="M156.138 687.705C155.468 685.385 154.968 683.005 154.668 680.595C153.948 675.145 154.168 669.525 155.428 664.025C158.948 648.585 169.768 635.515 184.498 629.495C189.248 627.555 194.238 626.425 199.268 626.065C206.918 625.515 214.648 626.765 221.748 629.715C224.868 631.005 227.868 632.635 230.698 634.585C243.898 643.695 251.638 659.095 251.558 675.055C251.538 677.785 251.288 680.465 250.808 683.095C249.678 689.435 247.258 695.425 243.798 700.765C239.258 707.785 232.918 713.655 225.368 717.705C223.628 718.635 221.328 717.485 220.598 715.795C219.778 713.875 220.788 711.955 222.508 711.035C228.208 707.975 232.998 703.625 236.628 698.485C241.358 691.775 244.108 683.735 244.298 675.435C244.358 673.375 244.258 671.295 243.988 669.225C242.388 656.965 235.158 645.695 224.618 639.255C223.818 638.755 222.998 638.305 222.158 637.865C215.468 634.425 208.108 632.895 200.808 633.265C194.528 633.575 188.298 635.305 182.638 638.435C170.698 645.005 162.858 657.575 161.668 671.065C161.428 673.755 161.468 676.435 161.758 679.055C162.028 681.485 162.528 683.855 163.218 686.165C160.818 686.465 158.448 686.985 156.138 687.705Z" fill="#00FF00"/>
<path d="M121.398 715.365C125.388 699.495 137.428 686.485 152.868 681.155C153.458 680.955 154.058 680.755 154.668 680.585C156.998 679.885 159.368 679.375 161.758 679.035C174.398 677.275 187.478 680.615 197.828 688.315C212.248 699.035 219.198 717.065 216.688 734.695C216.398 736.645 214.108 737.815 212.328 737.405C210.298 736.935 209.328 734.985 209.608 733.035C212.018 716.215 203.528 699.185 188.648 690.965C180.928 686.705 171.908 685.045 163.218 686.145C160.818 686.445 158.448 686.965 156.138 687.685C154.188 688.295 152.298 689.065 150.458 689.965C137.918 696.185 129.318 708.265 127.498 722.135C125.738 735.655 131.198 749.405 141.368 758.365C144.328 760.975 147.598 763.085 151.088 764.685C160.818 769.185 172.148 769.765 182.518 766.195C183.708 765.785 185.138 766.195 186.028 767.055H186.038C188.348 769.245 186.778 772.385 184.458 773.155C184.488 773.165 184.518 773.175 184.548 773.185C169.708 778.275 153.048 775.765 140.438 766.865C137.358 764.695 134.518 762.155 132.008 759.235C121.648 747.235 117.538 730.785 121.408 715.355L121.398 715.365Z" fill="#00FF00"/>
<path d="M370.738 829.565C370.708 806.105 381.988 783.625 401.258 770.065C413.068 761.745 427.108 757.325 441.278 757.025C444.218 756.945 447.178 757.055 450.118 757.355C456.768 758.005 463.348 759.575 469.658 762.085C481.158 766.665 491.078 774.185 498.688 783.605C500.528 785.885 502.248 788.295 503.808 790.795C508.168 797.745 511.368 805.445 513.198 813.575C516.188 826.905 515.108 840.505 510.648 852.935C509.648 855.735 508.468 858.485 507.138 861.135C502.858 869.675 496.898 877.425 489.538 883.865C487.338 885.785 483.618 884.885 482.008 882.685C480.198 880.195 480.998 877.075 483.188 875.165C490.268 868.965 495.678 861.285 499.188 852.865C500.578 849.595 501.668 846.225 502.448 842.785C505.118 831.295 504.548 819.065 500.318 807.675C499.638 805.855 498.878 804.075 498.038 802.335C496.508 799.195 494.718 796.185 492.688 793.355C484.428 781.845 472.268 773.185 458.408 769.645C454.138 768.565 449.818 767.935 445.508 767.765C442.088 767.615 438.658 767.775 435.288 768.195C422.908 769.755 411.088 775.015 401.528 783.575C386.478 797.045 379.318 817.765 382.078 837.655C385.128 859.615 400.238 878.045 420.698 886.215C422.438 886.905 423.638 888.745 423.818 890.575C424.298 895.275 419.498 897.265 416.158 895.895C416.178 895.935 416.218 895.965 416.238 896.005C389.388 885.285 370.768 858.605 370.738 829.575V829.565Z" fill="#00FF00"/>
<path d="M492.678 793.355C494.338 789.905 496.358 786.645 498.668 783.605C504.468 775.985 512.188 769.835 521.218 765.975C538.678 758.515 559.138 760.505 574.908 771.025C585.038 777.785 592.498 787.695 596.508 798.925C598.358 804.105 599.468 809.575 599.768 815.135C596.878 816.545 594.098 818.115 591.408 819.825C591.528 816.885 591.398 813.925 590.958 810.965C590.548 808.135 589.868 805.355 588.958 802.665C584.958 790.815 576.368 780.595 565.058 774.985C550.498 767.775 533.308 768.305 519.208 776.375C512.968 779.945 507.728 784.935 503.778 790.785C501.358 794.355 499.408 798.245 498.008 802.335C496.478 799.195 494.688 796.185 492.658 793.355H492.678Z" fill="#00FF00"/>
<path d="M316.378 1061.19C316.438 1058.63 316.578 1056.08 316.818 1053.54C317.738 1043.35 320.088 1033.24 323.878 1023.57C328.078 1012.85 333.948 1003.11 341.128 994.555C342.778 992.585 344.488 990.685 346.278 988.865C363.538 971.045 386.838 959.395 412.068 956.245C416.408 955.705 420.258 959.935 420.408 963.995C420.578 968.605 416.968 971.795 412.658 972.335C388.768 975.315 367.288 987.845 352.568 1006.07C350.198 1008.99 348.008 1012.07 346.018 1015.28C340.988 1023.33 337.178 1032.21 334.888 1041.67C334.828 1041.9 334.778 1042.14 334.718 1042.37C333.848 1046.07 333.228 1049.81 332.838 1053.57C330.188 1078.76 338.038 1104.85 354.998 1123.92C375.618 1147.11 406.458 1158.47 437.188 1154.27C461.638 1150.93 483.638 1137.16 498.078 1117.52C501.308 1113.13 504.158 1108.45 506.578 1103.52C506.978 1102.72 507.358 1101.91 507.728 1101.09C518.758 1076.75 518.118 1048.91 507.238 1024.97C505.638 1021.44 503.808 1018 501.758 1014.67C500.998 1013.41 500.198 1012.18 499.368 1010.96C497.798 1008.65 497.858 1005.36 499.148 1002.95C502.488 996.705 510.108 998.255 513.108 1002.76C513.108 1002.69 513.108 1002.62 513.108 1002.55C536.198 1036.51 538.018 1082.11 517.368 1117.48C516.278 1119.36 515.108 1121.21 513.888 1123.03C511.968 1125.88 509.938 1128.61 507.768 1131.24C487.848 1155.56 458.028 1170.62 426.238 1171.24C389.978 1171.95 355.148 1153.79 334.758 1123.85C322.088 1105.26 315.948 1083.21 316.408 1061.18L316.378 1061.19Z" fill="#00FF00"/>
<path d="M341.078 728.825C344.888 710.845 357.198 695.475 374.168 688.235C389.138 681.845 406.308 682.385 420.848 689.295C423.268 690.455 425.618 691.785 427.868 693.285C431.658 695.815 435.078 698.785 438.068 702.115C447.328 712.345 452.658 725.855 452.798 739.835C452.858 745.885 451.918 751.785 450.098 757.355C448.928 760.975 447.378 764.465 445.488 767.765C442.068 767.615 438.638 767.775 435.268 768.195C437.748 764.755 439.758 760.995 441.258 757.025C444.088 749.555 445.088 741.355 443.908 733.225C442.518 723.745 438.228 714.805 431.828 707.755C427.938 703.455 423.268 699.855 418.018 697.245C416.618 696.545 415.178 695.915 413.728 695.365C400.168 690.205 384.898 691.345 372.178 698.625C358.448 706.485 349.578 721.195 348.448 736.865C347.198 754.185 355.768 770.795 370.108 780.385C371.318 781.195 371.938 782.805 371.788 784.225H371.778C371.388 787.905 367.378 788.645 365.048 787.055C365.058 787.085 365.068 787.115 365.088 787.155C346.268 774.555 336.358 751.075 341.078 728.815V728.825Z" fill="#00FF00"/>
<path d="M498.068 1117.52C501.298 1113.13 504.148 1108.45 506.568 1103.52C506.968 1102.72 507.348 1101.91 507.718 1101.09C510.328 1106.85 513.538 1112.36 517.348 1117.49C520.198 1121.38 523.388 1125.05 526.908 1128.48C548.008 1149.04 578.918 1158.68 607.938 1153.01C638.398 1147.05 663.868 1126.29 675.888 1097.7C687.598 1069.85 683.988 1037.25 667.508 1012.14C665.488 1009.06 663.288 1006.14 660.928 1003.38C656.328 997.955 651.128 993.145 645.468 989.015C628.348 976.495 607.038 970.095 585.378 971.185C584.968 971.215 584.558 971.235 584.148 971.255C581.958 971.395 579.768 970.375 578.248 968.795H578.238C577.818 968.365 577.448 967.895 577.138 967.385C573.478 961.345 578.688 955.555 584.088 955.265C584.018 955.235 583.958 955.195 583.908 955.175C614.438 953.245 644.518 964.745 666.118 985.525C670.328 989.565 674.208 993.945 677.708 998.665C681.658 1003.99 685.118 1009.71 688.028 1015.81C703.098 1047.5 702.268 1085.11 684.938 1115.79C667.108 1147.37 633.748 1168.12 597.608 1170.45C563.228 1172.66 529.628 1157.58 507.758 1131.27C507.078 1130.46 506.408 1129.62 505.738 1128.77C502.918 1125.17 500.368 1121.41 498.078 1117.53L498.068 1117.52Z" fill="#00FF00"/>
<path d="M253.909 121.825C253.859 121.875 253.819 121.935 253.769 121.985C259.529 89.4953 280.359 61.2053 308.799 45.6753C311.259 44.3353 313.779 43.0853 316.349 41.9353C323.009 38.9653 330.029 36.6752 337.299 35.1652C371.659 28.0152 408.009 37.7253 433.719 61.8253C460.189 86.6153 472.459 123.935 466.169 159.605C459.999 194.595 436.149 224.425 403.949 239.005C401.829 239.965 399.689 240.845 397.539 241.645C392.039 243.705 386.439 245.275 380.759 246.365C376.159 240.945 370.959 236.135 365.299 232.005C372.279 231.625 379.219 230.465 385.949 228.505C393.879 226.225 401.539 222.835 408.699 218.355C433.659 202.715 450.329 174.975 451.689 145.415C453.119 114.425 438.949 84.7553 414.019 66.3153C389.739 48.3553 357.199 44.1552 328.919 54.2252C325.729 55.3652 322.629 56.6653 319.619 58.1453C316.729 59.5553 313.949 61.1253 311.259 62.8353C289.349 76.6753 274.089 99.6052 269.469 125.545C268.979 128.305 266.649 130.615 264.049 131.445H264.039C257.299 133.575 252.919 127.145 253.919 121.835L253.909 121.825Z" fill="#00FF00"/>
<path d="M2.19905 204.555C0.399053 198.735 -0.330945 192.575 0.139055 186.435C0.309055 184.185 0.639045 181.935 1.12905 179.695C4.68905 163.725 16.3691 150.385 31.6691 144.645C46.6791 139.005 63.7391 141.435 76.7991 150.595C91.4991 160.915 98.9291 178.755 96.8991 196.455C96.6691 198.405 94.4091 199.645 92.6091 199.285C90.5691 198.865 89.559 196.945 89.779 194.995C91.729 178.095 82.779 161.305 67.689 153.495C55.889 147.385 41.2691 147.275 29.4891 153.535C17.1091 160.095 8.83906 172.405 7.39906 186.325C6.91906 190.985 7.28904 195.655 8.40904 200.115C8.41904 200.155 8.42904 200.185 8.43904 200.235C10.599 208.715 15.4491 216.495 22.2391 222.155C27.3391 226.415 33.319 229.245 39.599 230.615C42.309 231.205 45.0791 231.525 47.8591 231.565C53.1591 231.665 58.5091 230.775 63.5891 228.885C64.7591 228.445 66.1991 228.815 67.1091 229.645H67.1191C69.4891 231.775 67.9991 234.955 65.6991 235.785C65.7391 235.785 65.7591 235.805 65.7991 235.805C58.5991 238.495 50.9091 239.385 43.4291 238.565C40.9291 238.305 38.439 237.835 36.009 237.195C27.259 234.875 19.1491 230.155 12.8891 223.285C7.94906 217.865 4.32906 211.445 2.17906 204.585L2.19905 204.555Z" fill="#00FF00"/>
<path d="M90.5691 72.5652C90.5391 49.1052 101.819 26.6252 121.089 13.0652C132.899 4.74525 146.939 0.325268 161.109 0.0252682C164.049 -0.0547318 167.009 0.0552242 169.949 0.355224C176.599 1.00522 183.179 2.57527 189.489 5.08527C200.989 9.66527 210.909 17.1852 218.519 26.6052C220.359 28.8852 222.079 31.2952 223.639 33.7952C227.999 40.7452 231.199 48.4453 233.029 56.5753C236.019 69.9053 234.939 83.5052 230.479 95.9352C229.479 98.7352 228.299 101.485 226.969 104.135C222.689 112.675 216.729 120.425 209.369 126.865C207.169 128.785 203.449 127.885 201.839 125.685C200.029 123.195 200.829 120.075 203.019 118.165C210.099 111.965 215.509 104.285 219.019 95.8652C220.409 92.5952 221.499 89.2252 222.279 85.7852C224.949 74.2952 224.379 62.0652 220.149 50.6752C219.469 48.8552 218.709 47.0753 217.869 45.3353C216.339 42.1953 214.549 39.1852 212.519 36.3552C204.259 24.8452 192.099 16.1853 178.239 12.6453C173.969 11.5653 169.649 10.9353 165.339 10.7653C161.919 10.6153 158.489 10.7753 155.119 11.1953C142.739 12.7553 130.919 18.0153 121.359 26.5753C106.309 40.0453 99.1491 60.7653 101.909 80.6553C104.959 102.615 120.069 121.045 140.529 129.215C142.269 129.905 143.469 131.745 143.649 133.575C144.129 138.275 139.329 140.265 135.989 138.895C136.009 138.935 136.049 138.965 136.069 139.005C109.219 128.285 90.5991 101.605 90.5691 72.5753V72.5652Z" fill="#00FF00"/>
<path d="M212.509 36.3552C214.169 32.9052 216.189 29.6452 218.499 26.6052C224.299 18.9852 232.019 12.8352 241.049 8.97523C258.509 1.51523 278.969 3.50528 294.739 14.0253C304.869 20.7853 312.329 30.6952 316.339 41.9252C318.189 47.1052 319.299 52.5753 319.599 58.1353C316.709 59.5453 313.929 61.1153 311.239 62.8253C311.359 59.8853 311.229 56.9253 310.789 53.9653C310.379 51.1353 309.699 48.3552 308.789 45.6652C304.789 33.8152 296.199 23.5952 284.889 17.9852C270.329 10.7752 253.139 11.3053 239.039 19.3753C232.799 22.9453 227.559 27.9352 223.609 33.7852C221.189 37.3552 219.239 41.2453 217.839 45.3353C216.309 42.1953 214.519 39.1852 212.489 36.3552H212.509Z" fill="#00FF00"/>
<path d="M36.2091 304.185C36.2691 301.625 36.4091 299.075 36.6491 296.535C37.5691 286.345 39.9191 276.235 43.7091 266.565C47.9091 255.845 53.7791 246.105 60.9591 237.555C62.6091 235.585 64.3191 233.685 66.1091 231.865C83.3691 214.045 106.669 202.395 131.899 199.245C136.239 198.705 140.089 202.935 140.239 206.995C140.409 211.605 136.799 214.795 132.489 215.335C108.599 218.315 87.1191 230.845 72.3991 249.065C70.0291 251.985 67.8391 255.065 65.8491 258.275C60.8191 266.325 57.0091 275.205 54.7191 284.665C54.6591 284.895 54.6091 285.135 54.5491 285.365C53.6791 289.065 53.0591 292.805 52.6691 296.565C50.0191 321.755 57.8691 347.845 74.8291 366.915C95.4491 390.105 126.289 401.465 157.019 397.265C181.469 393.925 203.469 380.155 217.909 360.515C221.139 356.125 223.989 351.445 226.409 346.515C226.809 345.715 227.189 344.905 227.559 344.085C238.589 319.745 237.949 291.905 227.069 267.965C225.469 264.435 223.639 260.995 221.589 257.665C220.829 256.405 220.029 255.175 219.199 253.955C217.629 251.645 217.689 248.355 218.979 245.945C222.319 239.705 229.939 241.255 232.939 245.755C232.939 245.685 232.939 245.615 232.939 245.545C256.029 279.505 257.849 325.105 237.199 360.475C236.109 362.355 234.939 364.205 233.719 366.025C231.799 368.875 229.769 371.605 227.599 374.235C207.679 398.555 177.859 413.615 146.069 414.235C109.809 414.945 74.9791 396.785 54.5891 366.845C41.9191 348.255 35.7791 326.205 36.2391 304.175L36.2091 304.185Z" fill="#00FF00"/>
<path d="M217.899 360.515C221.129 356.125 223.979 351.445 226.399 346.515C226.799 345.715 227.179 344.905 227.549 344.085C230.159 349.845 233.369 355.355 237.179 360.485C240.029 364.375 243.219 368.045 246.739 371.475C267.839 392.035 298.749 401.675 327.769 396.005C358.229 390.045 383.699 369.285 395.719 340.695C407.429 312.845 403.819 280.245 387.339 255.135C385.319 252.055 383.119 249.135 380.759 246.375C376.159 240.955 370.959 236.145 365.299 232.015C348.179 219.495 326.869 213.095 305.209 214.185C304.799 214.215 304.389 214.235 303.979 214.255C301.789 214.395 299.599 213.375 298.079 211.795H298.069C297.649 211.365 297.279 210.895 296.969 210.385C293.309 204.345 298.519 198.555 303.919 198.265C303.849 198.235 303.789 198.195 303.739 198.175C334.269 196.245 364.349 207.745 385.949 228.525C390.159 232.565 394.039 236.945 397.539 241.665C401.489 246.985 404.949 252.705 407.859 258.805C422.929 290.495 422.099 328.105 404.769 358.785C386.939 390.365 353.579 411.115 317.439 413.445C283.059 415.655 249.459 400.575 227.589 374.265C226.909 373.455 226.239 372.615 225.569 371.765C222.749 368.165 220.199 364.405 217.909 360.525L217.899 360.515Z" fill="#00FF00"/>
</svg>
