<svg width="703" height="429" viewBox="0 0 703 429" fill="none" xmlns="http://www.w3.org/2000/svg">
<g clip-path="url(#clip0_16_174)">
<path d="M304.34 229.66L296 226.16C280.93 220 267.1 214.71 267.1 200.44C267.1 189.95 274.1 182.72 285.54 180.14C288.57 179.46 291.93 179.1 295.54 179.1C306.96 179.1 316.62 182.21 325.53 187.73C330.5 190.81 336.77 190.24 341.14 186.67C341.86 186.1 342.51 185.43 343.11 184.7L343.16 184.63C348.11 178.5 346.89 169.4 340.39 164.97C327.5 156.17 311.72 151.09 295.54 151.09C289.2 151.09 283.19 151.81 277.59 153.14H277.57C270.43 154.82 263.97 157.52 258.33 161.04C250.9 165.68 244.93 171.74 240.8 178.83V168.26C240.8 159.7 233.86 152.76 225.3 152.76C216.74 152.76 209.8 159.7 209.8 168.26V257.22C209.8 296.78 194.46 309.79 172.24 309.79C150.02 309.79 135.45 296.79 135.45 257.22V168.26C135.45 159.7 128.51 152.76 119.95 152.76H13.56C6.07 152.76 0 158.83 0 166.32V320.91C0 328.4 6.07 334.47 13.56 334.47H18.67C26.16 334.47 32.23 328.4 32.23 320.91V272.12C32.23 264.63 38.3 258.56 45.79 258.56H84.69C92.18 258.56 98.25 252.49 98.25 245C98.25 237.51 92.18 231.44 84.69 231.44H45.79C38.3 231.44 32.23 225.37 32.23 217.88V193.43C32.23 185.94 38.3 179.87 45.79 179.87H103.23V254.77C103.23 314.45 130.12 337.79 172.24 337.79C214.36 337.79 240.81 314.45 240.81 254.77V226.2C247.81 238.11 259.74 245.7 271.27 250.49L296.11 261.27C297.32 261.79 298.5 262.28 299.66 262.78C302.41 256.3 304.29 249.26 304.76 241.62C305.02 237.55 304.86 233.56 304.34 229.65V229.66Z" fill="#20063A"/>
<path d="M324.32 288.01C324.32 299.62 316.79 307.93 302.83 310.57C299.75 311.14 296.35 311.45 292.65 311.45C284.28 311.45 275.76 309.4 267.71 305.83C263.17 303.79 258.77 301.29 254.65 298.39C249 294.42 241.19 295.57 236.73 300.85L235.36 302.46C230.15 308.59 231.45 317.8 238.03 322.43C239.27 323.29 240.52 324.14 241.81 324.94C254.24 332.81 268.54 337.69 283.41 339.06C286.24 339.32 289.11 339.45 291.98 339.45C332.77 339.45 357.22 314.9 357.22 285.45C357.22 277.21 355.74 270.2 353.05 264.21C342.59 270.43 333.03 277.99 324.27 286.45C324.3 286.96 324.32 287.48 324.32 288.01Z" fill="#20063A"/>
<path d="M431.33 198.14L439.05 175.86C440.06 172.93 440.01 169.87 439.08 167.13C438.22 164.52 436.57 162.19 434.31 160.53C433.23 159.72 432.01 159.06 430.68 158.61L428.89 157.99L425.84 156.93C418.77 154.49 411.05 158.23 408.59 165.3L408.39 165.89H408.37L378.33 252.63H378.31L357.96 311.37C355.5 318.44 359.25 326.16 366.33 328.62L371.15 330.28C378.24 332.74 385.96 328.99 388.4 321.91L415.38 244.08L425.19 215.82L431.32 198.15L431.33 198.14Z" fill="#20063A"/>
<path d="M689.12 154.42H685.57C678.08 154.42 672 160.5 672 167.99V233.33C672 253.56 674.56 276.56 676.12 295.35H675.01L656.37 256.89C656.27 256.68 656.16 256.45 656.04 256.24L603.62 161.43C601.24 157.11 596.7 154.43 591.76 154.43H589.69C585.75 156.69 577.98 159.4 566.87 165.57C566.72 166.35 566.64 167.17 566.64 168V220.05C576.41 226.04 587.08 233.93 597.07 245.3C596.4 228.39 594.46 210.91 593.19 195.22H594.31L613.09 233.84L665.67 329.14C668.05 333.46 672.61 336.14 677.55 336.14H689.1C696.59 336.14 702.65 330.06 702.65 322.59V168C702.65 160.51 696.59 154.43 689.1 154.43L689.12 154.42Z" fill="#20063A"/>
<path d="M277.59 153.15C286.24 142.01 297.17 131.7 310.32 132.33C326.84 133.14 338.63 150.79 340.29 153.33C354.27 174.87 345.75 196.74 353.29 199.5C360.73 202.24 369.86 181.21 393.41 160.21C421.93 134.75 458.29 121.21 462.72 127.03C463.53 128.1 463.5 130.16 453.34 146.04C447.95 154.46 443.16 161.38 439.09 167.14C440.02 169.88 440.07 172.94 439.06 175.87L431.34 198.15C436.57 199.13 443.56 198.41 448.36 198.23C462.83 197.68 478.2 201.06 492.82 207.24C498.99 184.76 491.31 160.78 505.61 153.71C519.31 146.92 539.15 162.67 541.61 164.62C545.57 167.76 548.88 171.27 551.64 174.98H551.66C553.4 173.86 555.23 172.67 557.18 171.41C560.65 169.16 563.89 167.24 566.89 165.56C578 159.39 585.77 156.68 589.71 154.42C591.68 153.3 592.69 152.27 592.66 150.97C592.5 140.66 528.1 152.13 491.47 116.58C460.31 86.35 470.44 42.71 449.87 38C426.09 32.54 404.42 90.01 379.35 83.99C361.37 79.66 339.42 61.2 322.69 19.45C317.17 5.68002 312 -1.90998 309.33 0.420015C306.48 2.93002 315.11 26.27 316.29 40.27C317.79 58.03 304.51 72.65 299.19 78.55C272.62 107.86 227.76 110.23 200.47 111.72C176.51 113.01 159.31 110.37 158.72 113.43C157.79 118.4 203.19 121.87 245.15 151.22C247.74 153.03 252.55 156.38 258.34 161.06C263.98 157.54 270.44 154.84 277.58 153.16H277.6L277.59 153.15Z" fill="#FF499E"/>
<path d="M566.65 220.04C566.54 219.97 566.42 219.91 566.31 219.83C566.42 221.82 566.49 223.48 566.54 224.78C567.06 239.69 564.44 256.09 559.13 271.58C566.26 291.05 567.26 313.38 563.4 333.77C562.94 336.21 564.61 338.58 567.07 338.9C567.09 338.9 567.1 338.92 567.12 338.92C581.28 340.81 602.24 337.85 612.75 323.87C621.79 311.86 619.77 296.19 618.84 288.93C617.76 280.52 614.25 265.64 598.9 247.37C598.3 246.65 597.73 245.99 597.11 245.3L597.09 245.28C587.1 233.91 576.43 226.03 566.66 220.03L566.65 220.04Z" fill="#FF499E"/>
<path d="M566.54 224.78C566.49 223.48 566.43 221.82 566.31 219.83C565.67 209.34 563.26 190.41 551.65 174.98H551.63C548.86 171.27 545.55 167.76 541.6 164.62C539.14 162.67 519.3 146.91 505.6 153.71C491.3 160.78 498.99 184.76 492.81 207.24C491.03 213.71 488.12 220.04 483.2 225.81C481.51 227.8 479.73 229.54 477.89 231.07C466.96 240.14 453.94 241.64 442.88 244.15H442.85C433.52 246.25 425.58 249.05 421.49 257.74C412.87 276.11 429.54 303.69 446.45 317.9C450.42 321.26 471.28 338.02 496.96 334.81C526.23 331.16 548.27 303.26 559.12 271.59C564.43 256.1 567.05 239.69 566.53 224.79L566.54 224.78ZM483.9 304.74C477.66 304.74 472.29 303.29 467.79 300.59C451.71 290.93 442.65 267.34 450.02 255.78C453.1 250.94 458.18 249.61 464.03 249.23C473.84 248.59 485.83 250.65 494.3 243.32C494.82 242.86 495.33 242.39 495.81 241.87C502.93 234.33 503.22 222.86 502.16 211.64C500.74 196.43 496.83 181.65 504.15 177.79C509.56 174.92 517.26 180.14 520.24 181.93C524.56 184.52 528.09 188.28 530.83 193.06V193.08C532.28 195.6 533.5 198.41 534.51 201.47C536.87 208.59 538.03 217.12 538.03 226.77C538.03 230.44 537.82 234.1 537.41 237.72C533.48 273 511.15 304.77 483.9 304.77V304.74Z" fill="#20063A"/>
<path d="M534.51 201.45C531.95 199.12 530.57 196.66 530.75 193.68C530.77 193.47 530.78 193.27 530.83 193.06V193.04C528.09 188.27 524.56 184.5 520.24 181.91C517.26 180.12 509.55 174.91 504.15 177.77C496.84 181.63 500.75 196.41 502.16 211.62C515.32 218.43 527.52 227.42 537.41 237.68C537.82 234.06 538.03 230.4 538.03 226.73C538.03 217.09 536.87 208.55 534.51 201.43V201.45Z" fill="#FF499E"/>
<path d="M207.53 352.54C204.21 356.48 201.36 359.97 200.04 361.79C189.34 376.52 183.62 401.81 189.58 405.27C196.24 409.15 212.35 382.59 222.93 386.78C234.2 391.24 225.62 425.18 232.79 427.88C241.13 431.02 255.32 385.35 283.44 339.07C268.57 337.7 254.26 332.81 241.84 324.95C231.02 331.25 220.55 337.07 207.55 352.54H207.53Z" fill="#FF499E"/>
<path d="M408.38 165.89C399.65 170.26 389.99 176.33 380.87 184.48C361.49 201.78 353.98 219.06 347.85 216.83C342.57 214.89 346.86 201.55 341.14 186.68C336.77 190.25 330.5 190.82 325.53 187.74C316.62 182.22 306.96 179.11 295.54 179.11C291.92 179.11 288.57 179.47 285.54 180.15C284.48 183.72 285.12 187.68 287.45 190.82C295.77 202.11 302.47 215.25 304.34 229.67C304.86 233.58 305.02 237.57 304.76 241.64C304.29 249.28 302.41 256.32 299.66 262.8C293.37 277.69 282.52 289.74 273.58 299.7C271.56 301.95 269.61 303.98 267.72 305.84C275.77 309.41 284.29 311.46 292.66 311.46C296.36 311.46 299.76 311.15 302.84 310.58C309.39 302.08 316.52 293.93 324.28 286.45C333.04 278 342.61 270.44 353.06 264.21C360.59 259.73 368.57 255.95 377.05 253.07C377.44 252.94 377.86 252.79 378.32 252.63H378.34L408.38 165.89Z" fill="#FF499E"/>
<path d="M437.9 157.17C437.51 156.44 434.14 156.62 428.89 157.98L430.68 158.6C432.02 159.06 433.24 159.71 434.31 160.52C436.75 158.74 438.2 157.72 437.89 157.16L437.9 157.17Z" fill="#80FF72"/>
<path d="M477.89 231.07C461.8 221.15 443.18 215.12 426.09 215.77C425.81 215.79 425.52 215.8 425.21 215.82L415.4 244.08C423.97 243.15 433.27 242.96 442.85 244.15H442.88C453.94 241.64 466.96 240.14 477.89 231.07Z" fill="#FF499E"/>
<path d="M500.61 274.85C506.47 281.43 517.11 274.21 512.93 266.46C512.86 266.33 512.8 266.22 512.73 266.1C508.27 257.94 501.88 250.18 494.29 243.31C485.82 250.64 473.83 248.59 464.02 249.22C466.77 250.23 469.53 251.4 472.26 252.75C484 258.52 493.01 266.29 500.6 274.84L500.61 274.85Z" fill="#FF499E"/>
<path d="M227.59 314.94H227.6" stroke="#80FF72" stroke-linecap="round" stroke-linejoin="round"/>
</g>
<defs>
<clipPath id="clip0_16_174">
<rect width="702.67" height="428.03" fill="white"/>
</clipPath>
</defs>
</svg>
