<svg width="952" height="131" viewBox="0 0 952 131" fill="none" xmlns="http://www.w3.org/2000/svg">
<path d="M0 118.26V12.36C0 7.78 3.72 4.06 8.3 4.06H52.95C76.2 4.06 91.14 21.59 91.14 43.54C91.14 65.49 76.2 81.54 52.95 81.54H28.04C23.46 81.54 19.74 85.26 19.74 89.84V118.25C19.74 122.83 16.02 126.55 11.44 126.55H8.3C3.72 126.55 0 122.83 0 118.25V118.26ZM49.99 65.49C66.04 65.49 73.79 56.08 73.79 43.17C73.79 30.26 66.04 20.48 49.99 20.48H28.04C23.46 20.48 19.74 24.2 19.74 28.78V57.19C19.74 61.77 23.46 65.49 28.04 65.49H49.99Z" fill="black"/>
<path d="M95.75 66.42C95.75 24.91 116.59 0 153.3 0C190.01 0 210.31 24.91 210.31 66.97C210.31 109.03 189.65 130.8 153.49 130.8C117.33 130.8 95.75 107.74 95.75 66.41V66.42ZM190.75 66.23C190.75 35.24 177.47 17.53 153.11 17.53C128.75 17.53 115.29 35.24 115.29 66.6C115.29 97.96 129.31 114.01 152.74 114.01C176.17 114.01 190.74 99.44 190.74 66.23H190.75Z" fill="black"/>
<path d="M302.18 126.56C297.6 126.56 293.88 122.84 293.88 118.26V94.83C293.88 82.1 289.08 76.2 271.56 76.2H246.47C241.89 76.2 238.17 79.92 238.17 84.5V118.26C238.17 122.84 234.45 126.56 229.87 126.56H227.29C222.71 126.56 218.99 122.84 218.99 118.26V12.36C218.99 7.78 222.71 4.06 227.29 4.06H279.5C301.82 4.06 316.21 18.63 316.21 38.37C316.21 47.76 312.99 55.85 307.1 61.35C303.57 64.65 303.63 70.18 307.12 73.51C311.31 77.51 313.07 83.53 313.07 92.42V118.25C313.07 122.83 309.35 126.55 304.77 126.55H302.19L302.18 126.56ZM275.06 60.14C291.48 60.14 297.75 51.29 297.75 40.22C297.75 28.41 290.92 20.48 276.35 20.48H246.46C241.88 20.48 238.16 24.2 238.16 28.78V51.84C238.16 56.42 241.88 60.14 246.46 60.14H275.06Z" fill="black"/>
<path d="M359.37 118.26V28.96C359.37 24.38 355.65 20.66 351.07 20.66H328.93C324.35 20.66 320.63 16.94 320.63 12.36C320.63 7.78 324.35 4.06 328.93 4.06H409.55C414.13 4.06 417.85 7.78 417.85 12.36C417.85 16.94 414.13 20.66 409.55 20.66H387.41C382.83 20.66 379.11 24.38 379.11 28.96V118.25C379.11 122.83 375.39 126.55 370.81 126.55H367.67C363.09 126.55 359.37 122.83 359.37 118.25V118.26Z" fill="black"/>
<path d="M479.02 120.94L473.45 104.68C472.3 101.32 469.14 99.07 465.6 99.07H425.48C422 99.07 418.9 101.24 417.69 104.5L411.55 121.13C410.35 124.39 407.24 126.56 403.76 126.56H400.68C394.88 126.56 390.87 120.77 392.91 115.34L432.62 9.45C433.84 6.21 436.93 4.06 440.39 4.06H451.36C454.84 4.06 457.94 6.23 459.15 9.49L498.22 115.38C500.22 120.8 496.21 126.56 490.43 126.56H486.88C483.33 126.56 480.18 124.3 479.03 120.95L479.02 120.94ZM437.67 47.57L429.02 71.73C427.08 77.14 431.09 82.83 436.84 82.83H454.07C459.8 82.83 463.81 77.16 461.89 71.75L453.32 47.59C450.71 40.23 440.31 40.22 437.68 47.57H437.67Z" fill="black"/>
<path d="M528.91 80.99V118.26C528.91 122.84 525.19 126.56 520.61 126.56H517.47C512.89 126.56 509.17 122.84 509.17 118.26V12.36C509.17 7.78 512.89 4.06 517.47 4.06H585.91C590.49 4.06 594.21 7.78 594.21 12.36C594.21 16.94 590.49 20.66 585.91 20.66H537.21C532.63 20.66 528.91 24.38 528.91 28.96V47.59C528.91 52.17 532.63 55.89 537.21 55.89H578.53C583.11 55.89 586.83 59.61 586.83 64.19V64.37C586.83 68.95 583.11 72.67 578.53 72.67H537.21C532.63 72.67 528.91 76.39 528.91 80.97V80.99Z" fill="black"/>
<path d="M594.03 66.42C594.03 24.91 614.88 0 651.59 0C688.3 0 708.6 24.91 708.6 66.97C708.6 109.03 687.94 130.8 651.78 130.8C615.62 130.8 594.04 107.74 594.04 66.41L594.03 66.42ZM689.04 66.23C689.04 35.24 675.76 17.53 651.4 17.53C627.04 17.53 613.58 35.24 613.58 66.6C613.58 97.96 627.6 114.01 651.03 114.01C674.46 114.01 689.03 99.44 689.03 66.23H689.04Z" fill="black"/>
<path d="M717.27 118.26V12.36C717.27 7.78 720.99 4.06 725.57 4.06H728.71C733.29 4.06 737.01 7.78 737.01 12.36V101.1C737.01 105.68 740.73 109.4 745.31 109.4H793.28C797.86 109.4 801.58 113.12 801.58 117.7V118.25C801.58 122.83 797.86 126.55 793.28 126.55H725.57C720.99 126.55 717.27 122.83 717.27 118.25V118.26Z" fill="black"/>
<path d="M808.59 118.26V12.36C808.59 7.78 812.31 4.06 816.89 4.06H820.03C824.61 4.06 828.33 7.78 828.33 12.36V118.25C828.33 122.83 824.61 126.55 820.03 126.55H816.89C812.31 126.55 808.59 122.83 808.59 118.25V118.26Z" fill="black"/>
<path d="M836.81 66.42C836.81 24.91 857.66 0 894.37 0C931.08 0 951.37 24.91 951.37 66.97C951.37 109.03 930.71 130.8 894.55 130.8C858.39 130.8 836.81 107.74 836.81 66.41V66.42ZM931.82 66.23C931.82 35.24 918.54 17.53 894.19 17.53C869.84 17.53 856.37 35.24 856.37 66.6C856.37 97.96 870.39 114.01 893.82 114.01C917.25 114.01 931.82 99.44 931.82 66.23Z" fill="black"/>
</svg>
