<svg width="933" height="205" viewBox="0 0 933 205" fill="none" xmlns="http://www.w3.org/2000/svg">
<path d="M445.27 117.12C442.08 103.1 434.22 90.6802 424.89 88.5602C416.58 86.6702 410.69 93.7502 400.05 101.76C393.92 106.4 386.19 111.36 375.5 115.07C339.93 127.42 294.88 118.85 274.23 105.91C268.24 102.15 258.63 96.6602 251.57 86.9702L251.05 85.8302C249.79 83.0802 248.7 80.2702 247.95 77.3902C246.27 70.9502 246.24 65.5502 247.13 61.2002C247.87 59.3002 248.65 57.6302 249.31 56.3902C254.67 46.2802 283.32 46.8702 304.49 48.7502C313.01 49.5002 320.32 50.4702 324.41 51.0402C390.87 51.0402 366.2 15.7802 356.55 4.44022C354.67 2.23022 351.91 0.970215 349 0.970215H238.03C232.54 0.970215 228.08 5.4202 228.08 10.9202V73.1602V193.79C228.08 199.28 232.53 203.74 238.03 203.74H342.18C345.07 203.74 347.83 202.5 349.7 200.3C358.98 189.43 380.95 157.37 319.15 157.37C315.67 157.86 309.71 158.65 302.67 159.32C282.49 161.27 253.41 162.25 248.14 152.32C245.24 146.83 249.94 138.66 255.87 134.02C259.37 131.27 263.6 129.53 268.39 128.59C312.24 120.07 403.96 179.76 435.69 156.74C446.74 148.73 448.64 132.02 445.26 117.13L445.27 117.12Z" fill="#A45031"/>
<path d="M0.0100098 53.2402C0.0100098 64.0702 7.40001 73.7602 18.01 75.9302C31.29 78.6402 42.84 71.5102 46.41 68.3102C54.74 60.8602 55.79 53.4302 70.95 42.7902C76.47 38.9202 85.4 32.6502 93.53 34.0402C114.9 37.6902 135.82 95.1002 117.8 137.56C106.34 164.55 84.44 171.12 87.81 183.25C92.77 201.07 147.32 213.09 164.92 193.25C193.79 160.69 107.58 59.8602 139.22 26.9002C144.48 21.4202 153.71 17.0602 159.92 19.7602C173.03 25.4502 169.34 61.0702 166.72 78.6802C165.71 85.4702 165.54 92.3802 166.49 99.1802C171.04 131.72 192.64 126.28 206.73 118.87C214.39 114.84 219.18 106.9 219.18 98.2502V17.2702C219.18 8.4002 211.99 1.2002 203.11 1.2002H16.07C7.20001 1.2002 0 8.3902 0 17.2702V53.2502L0.0100098 53.2402Z" fill="#A45031"/>
<path d="M692.51 88.7C692.17 88.37 691.83 88.04 691.49 87.71C689.14 85.4 689.56 81.45 692.4 79.76C696.63 77.24 699.72 74.2 701.93 71.95C719.16 54.38 727.77 45.6 729.19 36.56C729.42 35.1 732.21 15.4 719.02 5.22998C717.74 4.23998 711.39 -0.660015 703.14 0.109985C702.42 0.0399854 701.7 0 700.97 0H625.56C617.29 0 610.59 6.7 610.59 14.97V54.93V131.2V189.16C610.59 197.43 617.29 204.13 625.56 204.13H659.04C669.13 204.13 678.15 197.23 680.18 187.35C682.7 174.99 676.05 164.23 673.08 160.91C666.14 153.14 659.22 152.18 649.32 138.05C645.7 132.92 639.87 124.59 641.17 117.03C642.67 108.22 653.97 99.5 669.53 93.96C673.39 92.59 677.68 93.78 680.38 96.86C692.44 110.61 702.35 129.2 704.15 148.82C706.64 176.02 691.57 191.07 699.69 199.52C711.61 211.95 761.66 197.77 767.35 173.73C773.71 146.89 722.38 117.61 692.54 88.7H692.51ZM636.02 75.78C635.5 75.37 634.98 74.93 634.5 74.47C629.4 69.57 625.33 60.97 627.85 55.18C632.25 45.02 655.93 45.69 673.2 47.61C674.07 47.71 674.92 47.81 675.75 47.91C682.44 48.73 687.28 54.95 686.08 61.58C686.07 61.64 686.06 61.7 686.05 61.76C685.35 65.44 683.49 68.5 681.31 71.07C677.63 75.42 672.47 78.27 666.9 79.46C665.09 79.85 663.32 80.17 661.59 80.42C651.33 81.92 642.46 80.93 636.01 75.77L636.02 75.78Z" fill="#A45031"/>
<path d="M533.51 88.9998C533.17 88.6698 532.83 88.3398 532.49 88.0098C530.14 85.6998 530.56 81.7498 533.4 80.0598C537.63 77.5398 540.72 74.4998 542.93 72.2498C560.16 54.6798 568.77 45.8998 570.19 36.8598C570.42 35.3998 573.21 15.6998 560.02 5.52982C558.74 4.53982 552.39 -0.360179 544.14 0.409821C543.42 0.339821 542.7 0.299805 541.97 0.299805H466.56C458.29 0.299805 451.59 6.99981 451.59 15.2698V55.2298V131.5V189.46C451.59 197.73 458.29 204.43 466.56 204.43H500.04C510.13 204.43 519.15 197.53 521.18 187.65C523.7 175.29 517.05 164.53 514.08 161.21C507.14 153.44 500.22 152.48 490.32 138.35C486.7 133.22 480.87 124.89 482.17 117.33C483.67 108.52 494.97 99.7998 510.53 94.2598C514.39 92.8898 518.68 94.0798 521.38 97.1598C533.44 110.91 543.35 129.5 545.15 149.12C547.64 176.32 532.57 191.37 540.69 199.82C552.61 212.25 602.66 198.07 608.35 174.03C614.71 147.19 563.38 117.91 533.54 88.9998H533.51ZM477.02 76.0798C476.5 75.6698 475.98 75.2298 475.5 74.7698C470.4 69.8698 466.33 61.2698 468.85 55.4798C473.25 45.3198 496.93 45.9898 514.2 47.9098C515.07 48.0098 515.92 48.1098 516.75 48.2098C523.44 49.0298 528.28 55.2498 527.08 61.8798C527.07 61.9398 527.06 61.9998 527.05 62.0598C526.35 65.7398 524.49 68.7998 522.31 71.3698C518.63 75.7198 513.47 78.5698 507.9 79.7598C506.09 80.1498 504.32 80.4698 502.59 80.7198C492.33 82.2198 483.46 81.2298 477.01 76.0698L477.02 76.0798Z" fill="#A45031"/>
<path d="M887.78 0.52002H864.12H842.52H818.86C794.05 0.52002 773.95 20.63 773.95 45.43V119.14V189.25C773.95 197.5 780.64 204.19 788.89 204.19H822.31C832.37 204.19 841.38 197.31 843.4 187.46C845.92 175.11 839.28 164.39 836.32 161.06C829.4 153.32 822.49 152.35 812.6 138.25C809.01 133.13 803.19 124.83 804.47 117.28C805.61 110.67 812.27 104.11 822.12 98.91C841.57 88.63 865.09 88.64 884.55 98.91C894.4 104.11 901.07 110.67 902.2 117.28C903.49 124.83 897.66 133.13 894.07 138.25C884.18 152.34 877.29 153.32 870.36 161.06C867.38 164.39 860.75 175.11 863.28 187.46C865.29 197.31 874.3 204.19 884.36 204.19H917.8C926.03 204.19 932.72 197.5 932.72 189.25V119.13V45.43C932.72 20.62 912.61 0.52002 887.81 0.52002H887.78ZM884.45 65.88C873.69 82.3 838.61 82.09 824.8 64.28C823.79 62.98 815.54 52.05 819.6 43.06C827.19 26.27 874.63 23.27 885.66 43.06C889.62 50.16 888.57 59.61 884.45 65.88Z" fill="#A45031"/>
</svg>
