<svg width="695" height="205" viewBox="0 0 695 205" fill="none" xmlns="http://www.w3.org/2000/svg">
<g clip-path="url(#clip0_17_2)">
<path d="M331.33 86.93C328.96 76.5 323.11 67.26 316.16 65.68C309.98 64.28 305.59 69.54 297.68 75.5C293.12 78.95 287.36 82.64 279.41 85.4C252.94 94.59 219.42 88.21 204.06 78.59C199.6 75.8 192.46 71.7 187.2 64.5L186.81 63.65C185.87 61.6 185.06 59.51 184.5 57.37C183.25 52.58 183.23 48.56 183.89 45.32C184.44 43.91 185.02 42.67 185.51 41.74C189.5 34.22 210.82 34.65 226.57 36.06C229.9 36.36 232.99 36.69 235.61 37.01C241.42 37.71 247.28 37.83 253.09 37.17C274.2 34.76 276.53 25.45 273.65 16.81C270.36 6.94 260.83 0.5 250.43 0.5H177.13C173.04 0.5 169.73 3.81 169.73 7.9V143.98C169.73 148.07 173.04 151.38 177.13 151.38H254.63C256.78 151.38 258.83 150.45 260.23 148.82C266.43 141.56 280.24 121.59 249.73 117.58C243.88 116.81 237.96 116.87 232.11 117.58C230.08 117.83 227.75 118.09 225.24 118.33C210.23 119.78 188.59 120.51 184.67 113.12C182.51 109.03 186.01 102.95 190.42 99.5C193.02 97.45 196.17 96.16 199.74 95.46C232.37 89.12 300.62 133.54 324.23 116.41C332.45 110.45 333.87 98.02 331.35 86.93H331.33Z" fill="#DFEDDE"/>
<path d="M0 39.3999C0 47.4599 5.5 54.6699 13.4 56.2799C23.28 58.2999 31.87 52.9899 34.54 50.6099C40.74 45.0599 41.52 39.5399 52.8 31.6199C56.91 28.7399 63.55 24.0699 69.6 25.1099C85.5 27.8299 101.07 70.5499 87.66 102.14C79.14 122.23 62.83 127.11 65.35 136.14C69.04 149.4 109.64 158.34 122.73 143.58C144.21 119.35 80.06 44.3199 103.6 19.7999C107.51 15.7299 114.38 12.4799 119.01 14.4899C128.77 18.7199 126.02 45.2299 124.07 58.3299C123.32 63.3899 123.19 68.5199 123.9 73.5899C127.28 97.7999 143.36 93.7499 153.84 88.2399C159.54 85.2399 163.1 79.3299 163.1 72.8899V12.6299C163.1 6.02992 157.75 0.669922 151.14 0.669922H11.96C5.35 0.679922 0 6.02992 0 12.6299V39.3999Z" fill="#DFEDDE"/>
<path d="M517.2 66.01C516.94 65.76 516.69 65.52 516.44 65.27C514.69 63.55 515.01 60.61 517.12 59.35C520.27 57.48 522.56 55.21 524.21 53.54C537.03 40.47 543.44 33.93 544.49 27.2C544.66 26.11 546.73 11.46 536.92 3.89C535.96 3.15 531.24 -0.49 525.1 0.08C524.57 0.03 524.03 0 523.48 0H467.37C461.22 0 456.23 4.99 456.23 11.14V140.76C456.23 146.91 461.22 151.9 467.37 151.9H492.29C499.8 151.9 506.51 146.77 508.02 139.41C509.9 130.21 504.95 122.21 502.74 119.73C497.58 113.95 492.42 113.23 485.06 102.72C482.37 98.9 478.03 92.71 479 87.08C480.11 80.52 488.53 74.03 500.1 69.91C502.97 68.89 506.16 69.78 508.17 72.07C517.14 82.3 524.52 96.14 525.86 110.73C527.71 130.97 516.5 142.17 522.54 148.46C531.41 157.71 568.65 147.16 572.88 129.27C577.61 109.3 539.42 87.51 517.21 66L517.2 66.01ZM475.17 56.4C474.78 56.1 474.4 55.77 474.04 55.42C470.24 51.78 467.22 45.38 469.09 41.07C472.37 33.51 489.98 34.01 502.84 35.44C503.49 35.51 504.12 35.59 504.74 35.66C509.72 36.27 513.32 40.9 512.43 45.83C512.43 45.87 512.41 45.92 512.41 45.96C511.89 48.7 510.51 50.97 508.89 52.89C506.15 56.13 502.31 58.24 498.17 59.13C496.83 59.42 495.51 59.66 494.22 59.84C486.58 60.96 479.99 60.22 475.18 56.38L475.17 56.4Z" fill="#DFEDDE"/>
<path d="M396.99 66.01C396.73 65.76 396.48 65.52 396.23 65.27C394.48 63.55 394.8 60.61 396.91 59.35C400.06 57.48 402.35 55.21 404 53.54C416.82 40.47 423.23 33.93 424.28 27.2C424.45 26.11 426.52 11.46 416.71 3.89C415.75 3.15 411.03 -0.49 404.89 0.08C404.36 0.03 403.82 0 403.27 0H347.16C341.01 0 336.02 4.99 336.02 11.14V140.76C336.02 146.91 341.01 151.9 347.16 151.9H372.08C379.59 151.9 386.3 146.77 387.81 139.41C389.69 130.21 384.74 122.21 382.53 119.73C377.37 113.95 372.21 113.23 364.85 102.72C362.16 98.9 357.82 92.71 358.79 87.08C359.9 80.52 368.32 74.03 379.89 69.91C382.76 68.89 385.95 69.78 387.96 72.07C396.93 82.3 404.31 96.14 405.65 110.73C407.5 130.97 396.29 142.17 402.33 148.46C411.2 157.71 448.44 147.16 452.67 129.27C457.4 109.3 419.21 87.51 397 66L396.99 66.01ZM354.95 56.4C354.56 56.1 354.18 55.77 353.82 55.42C350.02 51.78 347 45.38 348.87 41.07C352.15 33.51 369.76 34.01 382.62 35.44C383.27 35.51 383.9 35.59 384.52 35.66C389.5 36.27 393.1 40.9 392.21 45.83C392.21 45.87 392.19 45.92 392.19 45.96C391.67 48.7 390.29 50.97 388.67 52.89C385.93 56.13 382.09 58.24 377.95 59.13C376.61 59.42 375.29 59.66 374 59.84C366.36 60.96 359.77 60.22 354.96 56.38L354.95 56.4Z" fill="#DFEDDE"/>
<path d="M660.61 0.169922H609.32C590.86 0.169922 575.9 15.1299 575.9 33.5899V140.61C575.9 146.75 580.88 151.73 587.02 151.73H611.89C619.38 151.73 626.08 146.61 627.58 139.28C629.45 130.09 624.52 122.11 622.31 119.64C617.16 113.88 612.02 113.16 604.66 102.67C601.99 98.8599 597.66 92.6799 598.61 87.0599C599.46 82.1399 604.42 77.2599 611.74 73.3899C626.22 65.7399 643.72 65.7499 658.19 73.3899C665.52 77.2599 670.48 82.1399 671.33 87.0599C672.29 92.6799 667.95 98.8599 665.28 102.67C657.92 113.16 652.79 113.88 647.64 119.64C645.42 122.12 640.49 130.1 642.37 139.28C643.86 146.61 650.57 151.73 658.05 151.73H682.93C689.06 151.73 694.03 146.75 694.03 140.61V33.5899C694.03 15.1299 679.07 0.169922 660.61 0.169922ZM658.13 48.8099C650.12 61.0299 624.02 60.8699 613.74 47.6199C612.99 46.6499 606.85 38.5199 609.87 31.8299C615.52 19.3399 650.82 17.0999 659.03 31.8299C661.98 37.1099 661.19 44.1399 658.13 48.8099Z" fill="#DFEDDE"/>
<path d="M33.16 186.46V196.42H29.46V171.89H33.66C35.71 171.89 37.27 172.03 38.32 172.32C39.38 172.61 40.31 173.15 41.12 173.94C42.53 175.32 43.23 177.05 43.23 179.15C43.23 181.4 42.48 183.18 40.97 184.49C39.47 185.8 37.44 186.46 34.88 186.46H33.16ZM33.16 183.03H34.54C37.94 183.03 39.64 181.72 39.64 179.11C39.64 176.5 37.89 175.31 34.38 175.31H33.16V183.03Z" fill="#DFEDDE"/>
<path d="M46.35 180.95H49.92V182.33C50.58 181.64 51.16 181.17 51.67 180.92C52.19 180.66 52.8 180.52 53.51 180.52C54.45 180.52 55.44 180.83 56.47 181.44L54.83 184.71C54.15 184.22 53.49 183.98 52.84 183.98C50.89 183.98 49.92 185.45 49.92 188.4V196.42H46.35V180.94V180.95Z" fill="#DFEDDE"/>
<path d="M57.51 188.57C57.51 186.34 58.31 184.43 59.91 182.87C61.51 181.3 63.46 180.52 65.76 180.52C68.06 180.52 70.03 181.31 71.64 182.89C73.23 184.47 74.02 186.41 74.02 188.71C74.02 191.01 73.22 192.97 71.62 194.54C70.01 196.1 68.03 196.88 65.69 196.88C63.35 196.88 61.43 196.09 59.86 194.5C58.29 192.93 57.51 190.96 57.51 188.59V188.57ZM61.16 188.64C61.16 190.19 61.57 191.41 62.4 192.31C63.25 193.22 64.37 193.68 65.75 193.68C67.13 193.68 68.27 193.23 69.1 192.33C69.94 191.43 70.36 190.23 70.36 188.72C70.36 187.21 69.94 186.01 69.1 185.11C68.25 184.2 67.13 183.74 65.75 183.74C64.37 183.74 63.28 184.2 62.43 185.11C61.58 186.02 61.16 187.2 61.16 188.64Z" fill="#DFEDDE"/>
<path d="M89.21 169.59H92.8V196.43H89.21V194.81C87.8 196.19 86.21 196.87 84.43 196.87C82.31 196.87 80.55 196.1 79.15 194.55C77.76 192.97 77.07 191 77.07 188.64C77.07 186.28 77.76 184.4 79.15 182.86C80.53 181.3 82.26 180.52 84.35 180.52C86.16 180.52 87.78 181.26 89.21 182.74V169.58V169.59ZM80.72 188.64C80.72 190.12 81.12 191.33 81.91 192.26C82.73 193.2 83.75 193.67 84.99 193.67C86.31 193.67 87.38 193.21 88.2 192.3C89.02 191.36 89.42 190.16 89.42 188.71C89.42 187.26 89.01 186.06 88.2 185.12C87.38 184.2 86.33 183.74 85.02 183.74C83.79 183.74 82.76 184.21 81.94 185.14C81.12 186.08 80.72 187.25 80.72 188.64Z" fill="#DFEDDE"/>
<path d="M100.89 180.95V189.83C100.89 192.39 101.9 193.67 103.93 193.67C105.96 193.67 106.96 192.39 106.96 189.83V180.95H110.53V189.91C110.53 191.15 110.38 192.22 110.07 193.12C109.77 193.93 109.26 194.65 108.53 195.3C107.32 196.35 105.79 196.87 103.92 196.87C102.05 196.87 100.54 196.35 99.33 195.3C98.59 194.65 98.06 193.93 97.76 193.12C97.46 192.4 97.31 191.33 97.31 189.91V180.95H100.88H100.89Z" fill="#DFEDDE"/>
<path d="M127.09 181.61V186.36C126.27 185.36 125.54 184.68 124.9 184.31C124.26 183.93 123.52 183.74 122.66 183.74C121.32 183.74 120.2 184.21 119.31 185.15C118.42 186.09 117.97 187.27 117.97 188.69C117.97 190.11 118.4 191.33 119.26 192.27C120.13 193.2 121.24 193.67 122.58 193.67C123.44 193.67 124.2 193.48 124.85 193.11C125.49 192.75 126.23 192.05 127.09 191.01V195.73C125.64 196.48 124.19 196.86 122.74 196.86C120.35 196.86 118.34 196.09 116.73 194.54C115.12 192.98 114.31 191.05 114.31 188.74C114.31 186.43 115.13 184.48 116.76 182.89C118.39 181.3 120.39 180.51 122.77 180.51C124.3 180.51 125.74 180.88 127.09 181.61Z" fill="#DFEDDE"/>
<path d="M134.24 184.28V196.42H130.66V184.28H129.13V180.94H130.66V175.27H134.24V180.94H137.02V184.28H134.24Z" fill="#DFEDDE"/>
<path d="M138.94 188.57C138.94 186.34 139.74 184.43 141.34 182.87C142.94 181.3 144.89 180.52 147.19 180.52C149.49 180.52 151.46 181.31 153.07 182.89C154.66 184.47 155.45 186.41 155.45 188.71C155.45 191.01 154.65 192.97 153.05 194.54C151.44 196.1 149.46 196.88 147.12 196.88C144.78 196.88 142.86 196.09 141.29 194.5C139.72 192.93 138.94 190.96 138.94 188.59V188.57ZM142.59 188.64C142.59 190.19 143 191.41 143.83 192.31C144.68 193.22 145.8 193.68 147.18 193.68C148.56 193.68 149.7 193.23 150.53 192.33C151.37 191.43 151.79 190.23 151.79 188.72C151.79 187.21 151.37 186.01 150.53 185.11C149.68 184.2 148.56 183.74 147.18 183.74C145.8 183.74 144.71 184.2 143.86 185.11C143.01 186.02 142.59 187.2 142.59 188.64Z" fill="#DFEDDE"/>
<path d="M168.22 183.58L165.26 185.15C164.79 184.2 164.22 183.72 163.53 183.72C163.2 183.72 162.92 183.83 162.69 184.05C162.46 184.27 162.34 184.54 162.34 184.88C162.34 185.47 163.03 186.06 164.41 186.64C166.31 187.46 167.58 188.21 168.24 188.9C168.9 189.59 169.23 190.52 169.23 191.68C169.23 193.17 168.68 194.42 167.58 195.43C166.51 196.38 165.22 196.86 163.7 196.86C161.1 196.86 159.27 195.59 158.19 193.06L161.24 191.65C161.66 192.39 161.99 192.86 162.21 193.06C162.64 193.46 163.16 193.66 163.77 193.66C164.98 193.66 165.58 193.11 165.58 192.01C165.58 191.37 165.11 190.78 164.18 190.23C163.82 190.05 163.46 189.88 163.1 189.71C162.74 189.54 162.37 189.37 162 189.19C160.96 188.68 160.23 188.17 159.81 187.66C159.27 187.01 159 186.18 159 185.17C159 183.82 159.46 182.71 160.38 181.83C161.32 180.95 162.47 180.51 163.81 180.51C165.79 180.51 167.26 181.53 168.23 183.58H168.22Z" fill="#DFEDDE"/>
<path d="M182.48 180.95H186.07V182.38C187.32 181.14 188.73 180.52 190.3 180.52C192.1 180.52 193.5 181.09 194.51 182.22C195.38 183.18 195.81 184.76 195.81 186.94V196.43H192.22V187.79C192.22 186.26 192.01 185.21 191.58 184.63C191.17 184.04 190.41 183.74 189.32 183.74C188.13 183.74 187.29 184.13 186.79 184.92C186.3 185.69 186.06 187.04 186.06 188.97V196.44H182.47V180.96L182.48 180.95Z" fill="#DFEDDE"/>
<path d="M211.73 180.95H215.32V196.43H211.73V194.81C210.26 196.19 208.67 196.87 206.98 196.87C204.84 196.87 203.07 196.1 201.67 194.55C200.28 192.97 199.59 191 199.59 188.64C199.59 186.28 200.28 184.39 201.67 182.84C203.06 181.29 204.8 180.52 206.88 180.52C208.68 180.52 210.3 181.26 211.73 182.74V180.94V180.95ZM203.24 188.64C203.24 190.12 203.64 191.33 204.43 192.26C205.25 193.2 206.27 193.67 207.51 193.67C208.83 193.67 209.9 193.21 210.72 192.3C211.54 191.36 211.94 190.16 211.94 188.71C211.94 187.26 211.53 186.06 210.72 185.12C209.9 184.2 208.85 183.74 207.54 183.74C206.31 183.74 205.28 184.21 204.46 185.14C203.64 186.08 203.24 187.25 203.24 188.64Z" fill="#DFEDDE"/>
<path d="M223.52 184.28V196.42H219.94V184.28H218.41V180.94H219.94V175.27H223.52V180.94H226.3V184.28H223.52Z" fill="#DFEDDE"/>
<path d="M232.31 180.95V189.83C232.31 192.39 233.32 193.67 235.35 193.67C237.38 193.67 238.38 192.39 238.38 189.83V180.95H241.95V189.91C241.95 191.15 241.8 192.22 241.49 193.12C241.19 193.93 240.68 194.65 239.95 195.3C238.74 196.35 237.21 196.87 235.34 196.87C233.47 196.87 231.96 196.35 230.75 195.3C230.01 194.65 229.48 193.93 229.18 193.12C228.88 192.4 228.73 191.33 228.73 189.91V180.95H232.3H232.31Z" fill="#DFEDDE"/>
<path d="M246.46 180.95H250.03V182.33C250.69 181.64 251.27 181.17 251.78 180.92C252.3 180.66 252.91 180.52 253.62 180.52C254.56 180.52 255.55 180.83 256.58 181.44L254.94 184.71C254.26 184.22 253.6 183.98 252.95 183.98C251 183.98 250.03 185.45 250.03 188.4V196.42H246.46V180.94V180.95Z" fill="#DFEDDE"/>
<path d="M269.82 180.95H273.41V196.43H269.82V194.81C268.35 196.19 266.76 196.87 265.07 196.87C262.93 196.87 261.16 196.1 259.76 194.55C258.37 192.97 257.68 191 257.68 188.64C257.68 186.28 258.37 184.39 259.76 182.84C261.15 181.29 262.89 180.52 264.97 180.52C266.77 180.52 268.39 181.26 269.82 182.74V180.94V180.95ZM261.34 188.64C261.34 190.12 261.74 191.33 262.53 192.26C263.35 193.2 264.37 193.67 265.61 193.67C266.93 193.67 268 193.21 268.82 192.3C269.64 191.36 270.04 190.16 270.04 188.71C270.04 187.26 269.63 186.06 268.82 185.12C268 184.2 266.95 183.74 265.64 183.74C264.41 183.74 263.38 184.21 262.56 185.14C261.74 186.08 261.34 187.25 261.34 188.64Z" fill="#DFEDDE"/>
<path d="M281.5 169.59V196.43H277.93V169.59H281.5Z" fill="#DFEDDE"/>
<path d="M300.12 189.53H289.03C289.13 190.8 289.54 191.81 290.27 192.56C291 193.3 291.94 193.67 293.08 193.67C293.97 193.67 294.71 193.46 295.29 193.04C295.86 192.62 296.51 191.83 297.24 190.69L300.26 192.37C299.79 193.16 299.3 193.84 298.78 194.41C298.26 194.98 297.7 195.44 297.11 195.81C296.52 196.18 295.88 196.44 295.19 196.61C294.5 196.78 293.75 196.86 292.95 196.86C290.64 196.86 288.79 196.12 287.39 194.64C285.99 193.15 285.29 191.17 285.29 188.7C285.29 186.23 285.97 184.27 287.32 182.76C288.69 181.27 290.5 180.52 292.75 180.52C295 180.52 296.83 181.25 298.15 182.7C299.46 184.14 300.12 186.14 300.12 188.69L300.1 189.53H300.12ZM296.45 186.6C295.95 184.69 294.75 183.74 292.84 183.74C292.41 183.74 292 183.81 291.62 183.94C291.24 184.07 290.89 184.26 290.58 184.51C290.27 184.76 290 185.06 289.78 185.41C289.56 185.76 289.39 186.16 289.27 186.6H296.45Z" fill="#DFEDDE"/>
<path d="M313.03 183.58L310.07 185.15C309.6 184.2 309.03 183.72 308.34 183.72C308.01 183.72 307.73 183.83 307.5 184.05C307.27 184.27 307.15 184.54 307.15 184.88C307.15 185.47 307.84 186.06 309.22 186.64C311.12 187.46 312.39 188.21 313.05 188.9C313.71 189.59 314.04 190.52 314.04 191.68C314.04 193.17 313.49 194.42 312.39 195.43C311.32 196.38 310.03 196.86 308.51 196.86C305.91 196.86 304.08 195.59 303 193.06L306.05 191.65C306.47 192.39 306.8 192.86 307.02 193.06C307.45 193.46 307.97 193.66 308.58 193.66C309.79 193.66 310.39 193.11 310.39 192.01C310.39 191.37 309.92 190.78 308.99 190.23C308.63 190.05 308.27 189.88 307.91 189.71C307.55 189.54 307.18 189.37 306.81 189.19C305.77 188.68 305.04 188.17 304.62 187.66C304.08 187.01 303.81 186.18 303.81 185.17C303.81 183.82 304.27 182.71 305.19 181.83C306.13 180.95 307.28 180.51 308.62 180.51C310.6 180.51 312.07 181.53 313.04 183.58H313.03Z" fill="#DFEDDE"/>
<path d="M332.16 193.55L325.2 180.95H329.35L334.08 189.85L338.5 180.95H342.54L330.21 204.85H326.13L332.17 193.55H332.16Z" fill="#DFEDDE"/>
<path d="M358.58 169.59V196.43H355V169.59H358.58Z" fill="#DFEDDE"/>
<path d="M377.2 189.53H366.11C366.21 190.8 366.62 191.81 367.35 192.56C368.08 193.3 369.02 193.67 370.16 193.67C371.05 193.67 371.79 193.46 372.37 193.04C372.94 192.62 373.59 191.83 374.32 190.69L377.34 192.37C376.87 193.16 376.38 193.84 375.86 194.41C375.34 194.98 374.78 195.44 374.19 195.81C373.6 196.18 372.96 196.44 372.27 196.61C371.58 196.78 370.83 196.86 370.03 196.86C367.72 196.86 365.87 196.12 364.47 194.64C363.07 193.15 362.37 191.17 362.37 188.7C362.37 186.23 363.05 184.27 364.4 182.76C365.77 181.27 367.58 180.52 369.83 180.52C372.08 180.52 373.91 181.25 375.23 182.7C376.54 184.14 377.2 186.14 377.2 188.69L377.18 189.53H377.2ZM373.53 186.6C373.03 184.69 371.83 183.74 369.92 183.74C369.49 183.74 369.08 183.81 368.7 183.94C368.32 184.07 367.97 184.26 367.66 184.51C367.35 184.76 367.08 185.06 366.86 185.41C366.64 185.76 366.47 186.16 366.35 186.6H373.53Z" fill="#DFEDDE"/>
<path d="M392.52 180.95H396.11V196.43H392.52V194.81C391.05 196.19 389.46 196.87 387.77 196.87C385.63 196.87 383.86 196.1 382.46 194.55C381.07 192.97 380.38 191 380.38 188.64C380.38 186.28 381.07 184.39 382.46 182.84C383.85 181.29 385.58 180.52 387.67 180.52C389.47 180.52 391.09 181.26 392.52 182.74V180.94V180.95ZM384.04 188.64C384.04 190.12 384.44 191.33 385.23 192.26C386.05 193.2 387.07 193.67 388.31 193.67C389.63 193.67 390.7 193.21 391.52 192.3C392.34 191.36 392.74 190.16 392.74 188.71C392.74 187.26 392.33 186.06 391.52 185.12C390.7 184.2 389.64 183.74 388.34 183.74C387.11 183.74 386.08 184.21 385.26 185.14C384.44 186.08 384.04 187.25 384.04 188.64Z" fill="#DFEDDE"/>
<path d="M404.2 169.59V196.43H400.62V169.59H404.2Z" fill="#DFEDDE"/>
<path d="M422.82 189.53H411.73C411.83 190.8 412.24 191.81 412.97 192.56C413.7 193.3 414.64 193.67 415.78 193.67C416.67 193.67 417.41 193.46 417.99 193.04C418.56 192.62 419.21 191.83 419.94 190.69L422.96 192.37C422.49 193.16 422 193.84 421.48 194.41C420.96 194.98 420.4 195.44 419.81 195.81C419.22 196.18 418.58 196.44 417.89 196.61C417.2 196.78 416.45 196.86 415.65 196.86C413.34 196.86 411.49 196.12 410.09 194.64C408.69 193.15 407.99 191.17 407.99 188.7C407.99 186.23 408.67 184.27 410.02 182.76C411.39 181.27 413.2 180.52 415.45 180.52C417.7 180.52 419.53 181.25 420.85 182.7C422.16 184.14 422.82 186.14 422.82 188.69L422.8 189.53H422.82ZM419.15 186.6C418.65 184.69 417.45 183.74 415.54 183.74C415.11 183.74 414.7 183.81 414.32 183.94C413.94 184.07 413.59 184.26 413.28 184.51C412.97 184.76 412.7 185.06 412.48 185.41C412.26 185.76 412.09 186.16 411.97 186.6H419.15Z" fill="#DFEDDE"/>
<path d="M435.72 183.58L432.76 185.15C432.29 184.2 431.72 183.72 431.03 183.72C430.7 183.72 430.42 183.83 430.19 184.05C429.96 184.27 429.84 184.54 429.84 184.88C429.84 185.47 430.53 186.06 431.91 186.64C433.81 187.46 435.08 188.21 435.74 188.9C436.4 189.59 436.73 190.52 436.73 191.68C436.73 193.17 436.18 194.42 435.08 195.43C434.01 196.38 432.72 196.86 431.2 196.86C428.61 196.86 426.77 195.59 425.69 193.06L428.74 191.65C429.16 192.39 429.49 192.86 429.71 193.06C430.14 193.46 430.66 193.66 431.27 193.66C432.48 193.66 433.08 193.11 433.08 192.01C433.08 191.37 432.61 190.78 431.68 190.23C431.32 190.05 430.96 189.88 430.6 189.71C430.24 189.54 429.87 189.37 429.5 189.19C428.46 188.68 427.73 188.17 427.31 187.66C426.77 187.01 426.5 186.18 426.5 185.17C426.5 183.82 426.96 182.71 427.88 181.83C428.82 180.95 429.97 180.51 431.31 180.51C433.29 180.51 434.76 181.53 435.73 183.58H435.72Z" fill="#DFEDDE"/>
<path d="M462.02 181.61V186.36C461.2 185.36 460.47 184.68 459.83 184.31C459.19 183.93 458.45 183.74 457.59 183.74C456.24 183.74 455.13 184.21 454.24 185.15C453.35 186.09 452.91 187.27 452.91 188.69C452.91 190.11 453.34 191.33 454.2 192.27C455.07 193.2 456.18 193.67 457.52 193.67C458.38 193.67 459.13 193.48 459.79 193.11C460.43 192.75 461.17 192.05 462.03 191.01V195.73C460.58 196.48 459.13 196.86 457.68 196.86C455.29 196.86 453.28 196.09 451.67 194.54C450.06 192.98 449.25 191.05 449.25 188.74C449.25 186.43 450.07 184.48 451.7 182.89C453.33 181.3 455.33 180.51 457.71 180.51C459.24 180.51 460.68 180.88 462.03 181.61H462.02Z" fill="#DFEDDE"/>
<path d="M464.75 188.57C464.75 186.34 465.55 184.43 467.15 182.87C468.75 181.3 470.7 180.52 473 180.52C475.3 180.52 477.27 181.31 478.88 182.89C480.47 184.47 481.26 186.41 481.26 188.71C481.26 191.01 480.46 192.97 478.86 194.54C477.25 196.1 475.27 196.88 472.93 196.88C470.59 196.88 468.67 196.09 467.1 194.5C465.53 192.93 464.75 190.96 464.75 188.59V188.57ZM468.41 188.64C468.41 190.19 468.82 191.41 469.65 192.31C470.5 193.22 471.61 193.68 473 193.68C474.39 193.68 475.52 193.23 476.35 192.33C477.19 191.43 477.6 190.23 477.6 188.72C477.6 187.21 477.18 186.01 476.35 185.11C475.5 184.2 474.38 183.74 473 183.74C471.62 183.74 470.53 184.2 469.68 185.11C468.83 186.02 468.41 187.2 468.41 188.64Z" fill="#DFEDDE"/>
<path d="M485.04 180.95H488.62V182.38C489.31 181.66 489.9 181.17 490.38 180.92C490.9 180.66 491.55 180.52 492.33 180.52C494.08 180.52 495.46 181.28 496.48 182.81C497.6 181.28 499.12 180.52 501.04 180.52C504.52 180.52 506.27 182.63 506.27 186.86V196.42H502.68V187.82C502.68 186.34 502.5 185.29 502.14 184.67C501.77 184.04 501.16 183.73 500.31 183.73C499.32 183.73 498.61 184.1 498.16 184.84C497.71 185.58 497.49 186.77 497.49 188.41V196.4H493.9V187.85C493.9 185.1 493.11 183.72 491.52 183.72C490.51 183.72 489.78 184.1 489.32 184.85C488.86 185.6 488.63 186.79 488.63 188.41V196.4H485.05V180.92L485.04 180.95Z" fill="#DFEDDE"/>
<path d="M510.05 188.57C510.05 186.34 510.85 184.43 512.45 182.87C514.05 181.3 516 180.52 518.3 180.52C520.6 180.52 522.57 181.31 524.18 182.89C525.77 184.47 526.56 186.41 526.56 188.71C526.56 191.01 525.76 192.97 524.16 194.54C522.55 196.1 520.57 196.88 518.23 196.88C515.89 196.88 513.97 196.09 512.4 194.5C510.83 192.93 510.05 190.96 510.05 188.59V188.57ZM513.71 188.64C513.71 190.19 514.12 191.41 514.95 192.31C515.8 193.22 516.91 193.68 518.3 193.68C519.69 193.68 520.82 193.23 521.65 192.33C522.49 191.43 522.9 190.23 522.9 188.72C522.9 187.21 522.48 186.01 521.65 185.11C520.8 184.2 519.68 183.74 518.3 183.74C516.92 183.74 515.83 184.2 514.98 185.11C514.13 186.02 513.71 187.2 513.71 188.64Z" fill="#DFEDDE"/>
<path d="M544.07 184.28V196.42H540.5V184.28H538.97V180.94H540.5V175.27H544.07V180.94H546.85V184.28H544.07Z" fill="#DFEDDE"/>
<path d="M552.86 180.95V189.83C552.86 192.39 553.87 193.67 555.89 193.67C557.91 193.67 558.92 192.39 558.92 189.83V180.95H562.5V189.91C562.5 191.15 562.35 192.22 562.04 193.12C561.74 193.93 561.23 194.65 560.5 195.3C559.29 196.35 557.76 196.87 555.89 196.87C554.02 196.87 552.5 196.35 551.3 195.3C550.56 194.65 550.03 193.93 549.73 193.12C549.43 192.4 549.29 191.33 549.29 189.91V180.95H552.87H552.86Z" fill="#DFEDDE"/>
<path d="M577.06 180.95H580.64V182.38C581.33 181.66 581.92 181.17 582.4 180.92C582.92 180.66 583.57 180.52 584.35 180.52C586.1 180.52 587.48 181.28 588.5 182.81C589.62 181.28 591.14 180.52 593.06 180.52C596.54 180.52 598.29 182.63 598.29 186.86V196.42H594.7V187.82C594.7 186.34 594.52 185.29 594.16 184.67C593.79 184.04 593.18 183.73 592.33 183.73C591.34 183.73 590.63 184.1 590.18 184.84C589.73 185.58 589.51 186.77 589.51 188.41V196.4H585.92V187.85C585.92 185.1 585.13 183.72 583.54 183.72C582.53 183.72 581.8 184.1 581.34 184.85C580.88 185.6 580.65 186.79 580.65 188.41V196.4H577.07V180.92L577.06 180.95Z" fill="#DFEDDE"/>
<path d="M614.21 180.95H617.8V196.43H614.21V194.81C612.74 196.19 611.15 196.87 609.46 196.87C607.32 196.87 605.55 196.1 604.15 194.55C602.76 192.97 602.07 191 602.07 188.64C602.07 186.28 602.76 184.39 604.15 182.84C605.54 181.29 607.27 180.52 609.36 180.52C611.16 180.52 612.78 181.26 614.21 182.74V180.94V180.95ZM605.73 188.64C605.73 190.12 606.13 191.33 606.92 192.26C607.74 193.2 608.76 193.67 610 193.67C611.32 193.67 612.39 193.21 613.21 192.3C614.03 191.36 614.43 190.16 614.43 188.71C614.43 187.26 614.02 186.06 613.21 185.12C612.39 184.2 611.33 183.74 610.03 183.74C608.8 183.74 607.77 184.21 606.95 185.14C606.13 186.08 605.73 187.25 605.73 188.64Z" fill="#DFEDDE"/>
<path d="M631.31 183.58L628.35 185.15C627.88 184.2 627.31 183.72 626.62 183.72C626.29 183.72 626.01 183.83 625.78 184.05C625.55 184.27 625.43 184.54 625.43 184.88C625.43 185.47 626.12 186.06 627.5 186.64C629.4 187.46 630.67 188.21 631.33 188.9C631.99 189.59 632.32 190.52 632.32 191.68C632.32 193.17 631.77 194.42 630.67 195.43C629.6 196.38 628.31 196.86 626.79 196.86C624.2 196.86 622.36 195.59 621.28 193.06L624.33 191.65C624.75 192.39 625.08 192.86 625.3 193.06C625.73 193.46 626.25 193.66 626.86 193.66C628.07 193.66 628.67 193.11 628.67 192.01C628.67 191.37 628.2 190.78 627.27 190.23C626.91 190.05 626.55 189.88 626.19 189.71C625.83 189.54 625.46 189.37 625.09 189.19C624.05 188.68 623.32 188.17 622.9 187.66C622.36 187.01 622.09 186.18 622.09 185.17C622.09 183.82 622.55 182.71 623.47 181.83C624.41 180.95 625.56 180.51 626.9 180.51C628.88 180.51 630.35 181.53 631.32 183.58H631.31Z" fill="#DFEDDE"/>
<path d="M647.56 181.61V186.36C646.74 185.36 646.01 184.68 645.37 184.31C644.73 183.93 643.99 183.74 643.13 183.74C641.78 183.74 640.67 184.21 639.78 185.15C638.89 186.09 638.45 187.27 638.45 188.69C638.45 190.11 638.88 191.33 639.74 192.27C640.61 193.2 641.72 193.67 643.06 193.67C643.92 193.67 644.67 193.48 645.33 193.11C645.97 192.75 646.71 192.05 647.57 191.01V195.73C646.12 196.48 644.67 196.86 643.22 196.86C640.83 196.86 638.82 196.09 637.21 194.54C635.6 192.98 634.79 191.05 634.79 188.74C634.79 186.43 635.61 184.48 637.24 182.89C638.87 181.3 640.87 180.51 643.25 180.51C644.78 180.51 646.22 180.88 647.57 181.61H647.56Z" fill="#DFEDDE"/>
<path d="M650.3 188.57C650.3 186.34 651.1 184.43 652.7 182.87C654.3 181.3 656.25 180.52 658.55 180.52C660.85 180.52 662.82 181.31 664.43 182.89C666.02 184.47 666.81 186.41 666.81 188.71C666.81 191.01 666.01 192.97 664.41 194.54C662.8 196.1 660.82 196.88 658.48 196.88C656.14 196.88 654.22 196.09 652.65 194.5C651.08 192.93 650.3 190.96 650.3 188.59V188.57ZM653.95 188.64C653.95 190.19 654.36 191.41 655.19 192.31C656.04 193.22 657.15 193.68 658.54 193.68C659.93 193.68 661.06 193.23 661.89 192.33C662.73 191.43 663.14 190.23 663.14 188.72C663.14 187.21 662.72 186.01 661.89 185.11C661.04 184.2 659.92 183.74 658.54 183.74C657.16 183.74 656.07 184.2 655.22 185.11C654.37 186.02 653.95 187.2 653.95 188.64Z" fill="#DFEDDE"/>
<path d="M674.46 184.28V196.42H670.89V184.28H669.36V180.94H670.89V175.27H674.46V180.94H677.24V184.28H674.46Z" fill="#DFEDDE"/>
<path d="M691.37 180.95H694.96V196.43H691.37V194.81C689.9 196.19 688.31 196.87 686.62 196.87C684.48 196.87 682.71 196.1 681.31 194.55C679.92 192.97 679.23 191 679.23 188.64C679.23 186.28 679.92 184.39 681.31 182.84C682.7 181.29 684.43 180.52 686.52 180.52C688.32 180.52 689.94 181.26 691.37 182.74V180.94V180.95ZM682.89 188.64C682.89 190.12 683.29 191.33 684.08 192.26C684.9 193.2 685.92 193.67 687.16 193.67C688.48 193.67 689.55 193.21 690.37 192.3C691.19 191.36 691.59 190.16 691.59 188.71C691.59 187.26 691.18 186.06 690.37 185.12C689.55 184.2 688.49 183.74 687.19 183.74C685.96 183.74 684.93 184.21 684.11 185.14C683.29 186.08 682.89 187.25 682.89 188.64Z" fill="#DFEDDE"/>
</g>
<defs>
<clipPath id="clip0_17_2">
<rect width="694.96" height="204.84" fill="white"/>
</clipPath>
</defs>
</svg>
